<?xml version="1.0" encoding="utf-8"?>
<!-- Generator: Adobe Illustrator 27.9.0, SVG Export Plug-In . SVG Version: 6.00 Build 0)  -->
<svg version="1.1" id="Calque_1" xmlns="http://www.w3.org/2000/svg" xmlns:xlink="http://www.w3.org/1999/xlink" x="0px" y="0px"
	 viewBox="0 0 1024 1024" style="enable-background:new 0 0 1024 1024;" xml:space="preserve">
<style type="text/css">
	.st0{fill:#FFFBEA;}
	.st1{fill:#EAE0BF;}
	.st2{fill:#0A0923;}
	.st3{fill:#C4564C;}
	.st4{fill:#4A383D;}
	.st5{fill:#635A5D;}
	.st6{fill:#858283;}
	.st7{fill:#DDD6CA;}
	.st8{fill:#A28C84;}
	.st9{fill:#C4B4AA;}
	.st10{fill:#0B0616;}
	.st11{fill:#896A64;}
	.st12{fill:#FFEACC;}
	.st13{fill:#FFD48D;}
	.st14{fill:#BBAEA4;}
	.st15{fill:#834744;}
	.st16{fill:#FFFDF0;}
</style>
<g id="Calque_1_00000134226987127499091790000011762299528640005040_">
</g>
<g id="Calque_2_00000143582116300147692270000013908719996559884957_">
	<g>
		<path class="st0" d="M399.9,97.7c-4-1.6-7.8-2.3-11.3-2.4c-14.4-0.1-39.1-10.2-43.7,11.5c-2,9.6-4.8,40.1-17.5,42.1
			c-0.8,0.1-1.3-0.2-1.6-0.9l-4.8-10.9c-0.2-0.4-0.5-0.6-0.9-0.6h-2.9c1.9-13.3,0.4-29.5,3-40.3c4.8-20.4,22.8-33.1,44.1-31
			c18.1,1.8,35.8,5.3,53.2,10.4c0.3,0.1,0.4,0.4,0.3,0.6s-0.2,0.3-0.4,0.3c-5.9,1.2-17.4,4-19.7,9.8
			C396.5,89.5,397.2,93.3,399.9,97.7z"/>
		<path class="st0" d="M737.8,130.2l-6.7,22.8c-0.2,0.8-1.1,1.3-2,1.1c-0.2-0.1-0.5-0.2-0.7-0.4c-6.4-6.3-10.9-13.8-13.4-22.5
			c-4.1-14,1.6-33.2-17.5-37.9c-2.7-0.7-6.9-0.7-12.8-0.1c-8.8,0.9-17.6,1.8-26.5,2.8c-0.6,0.1-0.9,0.4-1,1l-0.3,2.6l-2.4-0.7
			c-0.5-0.2-0.6-0.4-0.3-0.9c10.8-12.6-8.7-18.3-16.9-20.4c-1.2-0.3-1.2-0.6,0-1c20-5.9,50.5-14.4,69.1-10.2
			c17.8,4.1,30.4,19.5,30.7,38.6C737.3,113.4,737.5,121.8,737.8,130.2z"/>
		<path class="st0" d="M783.2,577c-4.2-0.9-5,7.2-9.3,9.4c-0.3,0.1-0.5,0.2-0.8,0.1l-6.9-2c-0.5-0.1-1,0.1-1.2,0.5
			c-7.5,13.4-9.2,35.7-9.1,50.8c0.1,15.5-5.9,30.9-24.4,28.2c-33-4.8-18.4-55.8-21.9-77c-0.3-1.8-2-3-3.8-2.7
			c-1,0.2-1.8,0.7-2.3,1.6c-1,1.8-2.4,3.1-4,4.1c-2.2,1.3-4.8,1.2-6-0.3c-0.1-0.2-0.4-0.9-0.6-2c-1.4-6.1-2.6-12.4-3.8-18.9
			c-0.1-0.6-0.7-1.1-1.4-1c-0.3,0.1-0.7,0.3-0.8,0.6c-10.6,19.4-22.3,33-45.9,32.5c-10.9-0.2-25.3-3.2-37-1.9
			c-24.1,2.6-41,14.9-63.3,29.5c-17.1,11.2-30.5,15.9-48.2,4.2c-23.2-15.4-52.7-39.3-82.9-34.6c-23.6,3.7-46,7.7-60.8-15.7
			c-2.2-3.4-4.3-9-6.8-13.5c-0.2-0.3-0.6-0.5-0.9-0.3c-0.2,0.1-0.3,0.2-0.4,0.4c-1.5,5.1-2.6,10.3-3.3,15.6
			c-0.5,3.2-2.3,4.9-5.5,4.2c-3.4-0.8-4.8-5.4-6-8.3c-0.4-0.9-1.5-1.4-2.4-1c-0.2,0.1-0.3,0.2-0.4,0.3l-4.3,3.5
			c-0.5,0.4-0.7,0.9-0.7,1.5c0.4,11.1,1,22.2,2,33.3c1.4,16.7,0.7,40.4-18,45.3c-29.1,7.6-28.1-22-28.7-40.9
			c-0.3-11-1.9-21.9-4.8-32.5c-0.3-1-1.2-1.7-2.2-1.7l-8-0.1c-0.7,0-1.4-0.5-1.6-1.2l-2.7-9c-0.2-0.7-0.6-1.2-1.3-1.5l-4.3-1.7
			c4.5-30.6,10.4-47.5,19.1-71.6c0.7-1.9-0.3-4-2.2-4.6c-0.4-0.1-0.8-0.2-1.2-0.2h-1.6c-0.6,0-1.2,0.2-1.7,0.5
			c-1.6,1.1-3.4,1.4-5.4,1.1c-0.8-0.1-1.3-0.8-1.2-1.6v-0.1c4.3-21.6,15.2-38.9,25.9-58.3l0.4-3.1c3-0.6-3.9,0-6,0.3
			c-2.7-0.3-4.1,0.1-3.3-2c-0.5,0-1.3-0.2-2.4-0.7l15.8-30.8l0.9-4.3l3.9-7.7c0.2-0.4,0.1-0.8-0.3-1c-0.2-0.1-0.5-0.1-0.8,0
			c-7.2,4.1-15,6.9-23.2,8.4c-0.3,0.1-0.5-0.1-0.6-0.4l0.1-0.4c13.7-23.1,16.9-46.2,21.6-72.1c2.1-11.8,7.1-25.2,15-40.1
			c0.4-0.7,0.5-2.3,0.3-4.7c0-0.6-0.3-1-0.7-1.3c-2.2-1.6-4.5-1.4-6.9,0.6c-0.4,0.3-0.9,0.3-1.3-0.1c-0.2-0.2-0.3-0.5-0.2-0.8
			c7.9-29.4,22.6-54.7,44.2-75.9c2.1-2.1,2.3-4,0.6-5.9c-0.7-0.8-1.9-1.1-2.9-0.8l-7.1,2.3c-0.4,0.1-0.9-0.1-1-0.5
			c-0.1-0.2-0.1-0.3,0-0.5c6.6-20.4,18.7-36.4,36.5-48.2c0.9-0.6,1.2-1.7,0.7-2.7c-0.3-0.6-0.8-1.1-1.5-1.4
			c-1.2-0.6-1.7-2.1-1.1-3.3c0.2-0.5,0.6-0.9,1.1-1.1c7.4-3.7,15.6-6.7,22.3-11.5c1-0.7,1.3-2.2,0.5-3.2c-0.2-0.3-0.5-0.5-0.8-0.7
			l-10.6-5.8c-0.9-0.5-1.2-1.6-0.7-2.5c0.1-0.2,0.3-0.4,0.5-0.6c9.6-7.2,24.7-9.6,36.3-11.7c2.7-0.5,4.8-1.6,6.3-3.4
			c0.6-0.7,0.5-1.8-0.1-2.4l-8.9-8.6c-0.6-0.6-0.6-1.1,0-1.7c7.8-7.3,40.2-7.6,48.9-6.8c5.7,0.5,11.2-3.1,7.4-8.7
			c-1-1.5-0.6-2.3,1.2-2.3c19.3-0.3,37.9,2.9,55.9,9.7c0.5,0.2,0.9,0.1,1.3-0.3l2.2-2.6c0.6-0.7,1.2-0.7,1.8-0.1
			c1.5,1.4,1.6,2.9,0.4,4.5c-0.4,0.5-0.3,1.3,0.2,1.7c0.3,0.2,0.7,0.3,1.1,0.2c20.8-7.2,40.8-12.8,62.7-13.7
			c1.5-0.1,1.8,0.6,1.1,1.8c-1.4,2.4-1.7,4.9-0.8,7.5c0.2,0.6,0.7,1,1.2,1.1c3,0.6,6,0.9,9,0.8c14.1-0.5,34.6,0.4,47.3,7.1
			c0.9,0.5,1.2,1.5,0.7,2.4c-0.1,0.2-0.2,0.4-0.4,0.5l-10,8.5c-1.1,1-1.2,2.6-0.2,3.7c0.3,0.4,0.8,0.7,1.3,0.8
			c14.3,4,26.6,4.8,40.5,11.7c1.1,0.6,1.6,1.9,1,3.1c-0.2,0.4-0.5,0.7-0.9,0.9l-9,5.4c-1.3,0.8-1.8,2.5-1,3.9c0.2,0.4,0.6,0.8,1,1
			l18.6,10.9c0.6,0.4,0.9,0.9,1,1.6c0.1,1.3-0.5,2.2-1.9,2.8c-2.1,0.8-2.3,1.9-0.4,3.2c18.1,12.3,30.5,28.9,37.4,49.7
			c0.2,0.6-0.1,1.2-0.7,1.4c-0.4,0.1-0.9,0-1.2-0.3c-2.1-2.4-4.7-3.3-8-2.9c-1.7,0.2-2.9,1.8-2.7,3.5c0.1,0.4,0.2,0.8,0.4,1.2
			c0.8,1.5,1.9,2.9,3.2,4.3c19.2,20.7,32.6,45,40.3,72.9c0.2,0.6-0.2,1.2-0.8,1.4c-0.3,0.1-0.7,0-1-0.2c-2.1-1.6-4.4-2.1-7-1.8
			c-0.6,0.1-1.1,0.6-1.2,1.3c-0.3,2.6,0.1,5,1.1,7.1c8.8,18.7,14.5,39.3,16.9,61.6c1.8,16.9,7.2,33.3,16.1,49.3
			c0.4,0.7,0.2,0.9-0.6,0.8c-8.4-1.6-16.4-4.5-23.9-8.6c-0.4-0.2-0.9-0.1-1.1,0.3c-0.1,0.2-0.1,0.5,0,0.7l4.3,8.6l0.1,0.3
			c1.9,12.9,7.7,23.1,14.3,35.2c0.3,0.6,0.1,0.8-0.5,0.7l-14.4-3c-0.8-0.2-1.2,0.2-1.3,0.9c-0.5,4.2,0.3,8.2,2.3,11.8
			c9.6,17.2,17.5,33,19.9,52.9c0.1,0.9-0.5,1.7-1.4,1.8c-0.2,0-0.4,0-0.5,0l-11.5-2.7c-0.6-0.1-0.8,0.1-0.8,0.7
			c0.2,4.7,0.8,8.3,1.7,10.8C775.6,531.4,780.8,553.8,783.2,577z M415.8,262.2c2.6,12.7,15.6,15.8,25.9,9.9
			c9.2-5.3,14.6-12.9,16-22.7c6.2-3.6,11-7.9,18-9.7c30-8,58.1-3.4,84.9,11.7c0.6,0.4,1,0.2,1.2-0.5l1.2-5.1c0.1-0.4,0.5-0.8,1-0.7
			c0.3,0,0.6,0.3,0.6,0.6c0,0.1,0.1,0.3,0.1,0.5c-1.4,10.8,2.3,19.1,11,25.1c10.8,7.4,26.5,7,30.3-7.9c2.7,3.4,6.9,6.3,12.6,8.8
			c14.4,6.3,30-5.8,13.6-17.6c-12.4-8.9-19.3-21.8-26.1-35.5c-7.2-14.4-25.2-22-35.7-7.5c-3.2,4.5-4.8,11.5-6.3,17
			c-0.3,1.2-1.6,1.9-2.8,1.6h-0.1c-26.9-8.6-49.7-18.1-78.4-9.9c-6,1.7-13,5.2-19.5,7.6c-1.5,0.5-3.2-0.2-3.7-1.7l-0.1-0.4
			c-1.5-8-3.3-15.8-10.7-20.2c-14.1-8.4-27.8,4.6-33.9,16.2c-6.6,12.5-15.1,23.5-25.5,32.9c-5,4.5-7.5,11-2.1,15.9
			c7.5,6.8,20.4,2.1,26.9-4.1c0.4-0.4,0.6-0.9,0.5-1.5C414.2,262.5,414.7,261.6,415.8,262.2z M465.3,327.6
			c-8.6,5.4-17.6,8.6-26.9,9.6c-12.6,1.4-13.5-11.9-22.6-13.4c-6.4-1.1-11.4,0.7-15.1,5.2c-2,2.5-1.5,6.7-6.1,8
			c-12.2,3.2-24.3,3-36.2-0.8c-10.6-3.3-18.1-6.3-25.6,1.6c-15.1,15.8,1.8,37.4,12.9,48.8c6.4,6.5,9.4,13.5,9.1,21
			c-0.4,7.7-4.6,17.5-3.3,26.4c6.8,47.2,84.4,59.2,120.7,66.4c11,2.2,21.3,4.9,32,7.5c6,1.5,10.9,1.8,14.9,0.9
			c24.5-5.5,49.1-10.3,73.9-14.4c32.1-5.3,96.1-19.7,103.2-59.3c2.3-12.9-5.4-25-0.8-37.7c5.5-15.2,20.4-21.7,23.1-39.3
			c2.8-17.7-12-31-29.2-23.8c-15.9,6.6-33.5,13.6-50.5,11.3c-10.8-1.5-22-5.1-33.7-11c-0.5-0.3-0.9-0.6-1.1-1.2
			c-2.9-7.4-8.3-11.9-16.3-13.5c-10.5-2.1-22.6,12.6-32.6,16.5c-8,3.1-27.7,4.7-35.4-0.4c-6.2-4.1-12.6-7-19.4-8.8
			c15.1-5.1,32.9-21.4,17-37.6c-15.4-15.7-59.1-18.1-68.4,5.9C443.4,309.4,452,321.9,465.3,327.6z"/>
		<path class="st1" d="M737.8,130.2c1.5,12.4,3.1,24.9,4.7,37.4c1.3,10.5-1.1,20.2-7.5,29.2c-0.2,0.3-0.7,0.4-1,0.2l-0.3-0.4
			c-3.5-11-8.6-21.2-15.3-30.7c-4.4-6.2-10.9-12-16.6-17.8c-0.4-0.4-0.4-1-0.2-1.4c4.8-7.8-9-14.5-14.4-17c-0.4-0.2-0.6-0.7-0.4-1.1
			l0.1-0.2c14.2-17.8-18.6-25.7-30-28.9l0.3-2.6c0.1-0.6,0.4-0.9,1-1c8.9-1,17.7-1.9,26.5-2.8c5.8-0.6,10.1-0.6,12.8,0.1
			c19.1,4.7,13.5,23.9,17.5,37.9c2.5,8.7,7,16.2,13.4,22.5c0.6,0.6,1.6,0.6,2.2,0c0.2-0.2,0.3-0.4,0.4-0.7L737.8,130.2z"/>
		<path class="st1" d="M399.9,97.7c-10,2.2-51.3,12.7-33,30.3c0.3,0.3,0.3,0.7,0,1l-0.3,0.2c-5.7,2.1-21.6,9.3-17.2,17.7
			c0.3,0.6,0.2,1.1-0.3,1.6c-14.7,11.9-25.1,26.8-31.1,44.7c-0.2,0.6-0.8,0.9-1.4,0.7c-0.3-0.1-0.5-0.3-0.6-0.6
			c-8.6-17-1.9-39,1.2-56.7h2.9c0.4,0,0.8,0.2,0.9,0.6l4.8,10.9c0.3,0.7,0.8,1,1.6,0.9c12.7-2,15.5-32.5,17.5-42.1
			c4.6-21.6,29.3-11.5,43.7-11.5C392.1,95.3,395.8,96.1,399.9,97.7z"/>
		<path class="st1" d="M606,263.3c1.3-9-0.7-16.7-6.2-22.9c-10.1-11.8-31.1-11.5-35.2,5.7c0-0.2-0.1-0.4-0.1-0.5
			c-0.1-0.4-0.5-0.7-0.9-0.6c-0.3,0.1-0.6,0.4-0.7,0.7l-1.2,5.1c-0.2,0.7-0.6,0.9-1.2,0.5c-26.8-15.1-54.9-19.7-84.9-11.7
			c-7,1.9-11.8,6.2-18,9.7c-1.1-8.6-5.5-16.9-14.4-18.9c-16.4-3.6-27.2,18.2-27.5,31.7c-1.1-0.7-1.6,0.2-1.3,2.7
			c0.1,0.6-0.1,1.1-0.5,1.5c-6.5,6.2-19.4,10.9-26.9,4.1c-5.4-4.9-2.8-11.4,2.1-15.9c10.5-9.4,19-20.4,25.5-32.9
			c6.1-11.7,19.8-24.7,33.9-16.2c7.5,4.5,9.2,12.2,10.7,20.2c0.3,1.6,1.8,2.6,3.4,2.3l0.4-0.1c6.5-2.4,13.5-5.9,19.5-7.6
			c28.7-8.2,51.5,1.2,78.4,9.9c1.2,0.4,2.5-0.3,2.9-1.5v-0.1c1.5-5.5,3.1-12.5,6.3-17c10.5-14.6,28.5-6.9,35.7,7.5
			c6.8,13.6,13.8,26.6,26.1,35.5c16.5,11.8,0.9,23.9-13.6,17.6C612.9,269.6,608.7,266.7,606,263.3z"/>
		<path class="st2" d="M457.7,249.4c-1.5,9.9-6.8,17.5-16,22.7c-10.3,5.9-23.3,2.8-25.9-9.9c0.3-13.6,11.1-35.3,27.5-31.7
			C452.3,232.4,456.7,240.7,457.7,249.4z"/>
		<path class="st2" d="M606,263.3c-3.9,14.9-19.6,15.3-30.3,7.9c-8.7-6-12.4-14.4-11-25.1c4.1-17.2,25-17.5,35.2-5.7
			C605.3,246.6,607.3,254.3,606,263.3z M578,254.3c1.6,1.3,4,1,5.4-0.7l0,0c1.4-1.7,1.3-4.1-0.2-5.4c-1.6-1.3-4-1-5.4,0.7
			C576.3,250.6,576.5,253,578,254.3z"/>
		<path class="st0" d="M578,254.3c-1.6-1.3-1.7-3.7-0.2-5.4c1.4-1.7,3.8-2,5.4-0.7c1.6,1.3,1.7,3.7,0.2,5.4
			C582,255.3,579.6,255.6,578,254.3L578,254.3z"/>
		<path class="st2" d="M500.2,327.3l-9.9,3.6c-0.8,0.3-1.1,0.8-1.1,1.6l0.2,18.2c0,0.6,0.3,1.1,0.9,1.3
			c18.6,6.2,42.2,18.2,62.1,13.2c15.6-3.9,25.4-14.6,29.5-32c0.1-0.6,0.8-1,1.4-0.8l0.2,0.1l4.4,2c0.7,0.3,1,0.8,1,1.6
			c0.2,5.9-1.3,11.3-4.4,16.3c-14.8,23.9-35.9,26-61.3,21c-0.6-0.1-1,0.1-1.2,0.8c-3.1,13-8.9,26.2-21.1,32.4
			c-16.4,8.4-33.6,0.5-40.8-16.2c-1.8-4.1-3.4-10.3-4.9-18.4c-0.1-0.6-0.5-0.9-1.1-0.8c-24.4,3.4-48.1-12.5-48.7-38.3
			c-0.1-5.6,7.9-7.6,8.9-0.4c3,22.6,24.2,36.5,45.9,26.7c6.1-2.8,12.4-5.2,18.8-7.2c0.6-0.2,0.9-0.6,0.9-1.2v-17
			c0-0.6-0.4-1.1-1-1.3l-13.5-4.6c-13.3-5.8-21.8-18.2-16.5-32.1c9.2-24,53-21.6,68.4-5.9C533.1,305.9,515.3,322.2,500.2,327.3z
			 M482.1,399c17.6,5.5,27.5-14.5,29.9-28.4c0.1-0.6-0.1-1-0.8-1.2l-19.1-5.4c-0.6-0.2-1.3,0.2-1.5,0.8v0.3l-0.7,14.4
			c0,0.5-0.3,1-0.7,1.3c-2.9,2.1-5.1,0.6-5.6-2.6c-0.7-4-1-8.2-0.9-12.6c0-1.1-0.9-2.1-2.1-2.1h-0.3c-4.8,0.8-9.4,2.3-13.6,4.7
			c-0.6,0.3-0.9,0.9-1,1.6C465.4,381,470.4,395.4,482.1,399z"/>
		<path class="st1" d="M465.3,327.6l13.5,4.6c0.6,0.2,1,0.7,1,1.3v17c0,0.6-0.3,1-0.9,1.2c-6.4,2-12.7,4.4-18.8,7.2
			c-21.6,9.9-42.9-4.1-45.9-26.7c-1-7.2-9-5.2-8.9,0.4c0.7,25.8,24.4,41.8,48.7,38.3c0.6-0.1,1,0.2,1.1,0.8
			c1.5,8.1,3.1,14.2,4.9,18.4c7.2,16.7,24.5,24.5,40.8,16.2c12.2-6.2,17.9-19.5,21.1-32.4c0.1-0.6,0.5-0.9,1.2-0.8
			c25.4,5,46.5,3,61.3-21c3.1-5,4.6-10.4,4.4-16.3c0-0.7-0.4-1.3-1-1.6l-4.4-2c-0.6-0.3-1.3,0-1.5,0.6l-0.1,0.2
			c-4.1,17.4-13.9,28-29.5,32c-20,5.1-43.5-6.9-62.1-13.2c-0.6-0.2-0.9-0.6-0.9-1.3l-0.2-18.2c0-0.8,0.4-1.3,1.1-1.6l9.9-3.6
			c6.7,1.8,13.2,4.7,19.4,8.8c7.7,5.1,27.4,3.5,35.4,0.4c10-3.9,22.2-18.6,32.6-16.5c8,1.6,13.4,6.2,16.3,13.5
			c0.2,0.5,0.6,0.9,1.1,1.2c11.7,5.9,22.9,9.5,33.7,11c17,2.3,34.6-4.7,50.5-11.3c17.2-7.2,32,6,29.2,23.8
			c-2.8,17.5-17.6,24.1-23.1,39.3c-4.6,12.7,3.1,24.8,0.8,37.7c-7.1,39.7-71,54-103.2,59.3c-24.8,4.1-49.4,8.9-73.9,14.4
			c-4,0.9-8.9,0.6-14.9-0.9c-10.6-2.7-21-5.4-32-7.5c-36.3-7.2-114-19.1-120.7-66.4c-1.3-9,2.9-18.7,3.3-26.4
			c0.4-7.5-2.7-14.5-9.1-21c-11.2-11.3-28-33-12.9-48.8c7.5-7.9,15-4.9,25.6-1.6c11.9,3.7,24,4,36.2,0.8c4.7-1.2,4.1-5.5,6.1-8
			c3.7-4.5,8.8-6.3,15.1-5.2c9.1,1.5,10,14.8,22.6,13.4C447.7,336.2,456.6,333,465.3,327.6z"/>
		<path class="st3" d="M482.1,399c-11.7-3.7-16.7-18-16.4-29.2c0-0.6,0.4-1.2,1-1.6c4.2-2.4,8.7-3.9,13.6-4.7
			c1.1-0.2,2.2,0.6,2.4,1.8v0.3c-0.1,4.4,0.2,8.6,0.9,12.6c0.5,3.2,2.7,4.7,5.6,2.6c0.4-0.3,0.7-0.8,0.7-1.3l0.7-14.4
			c0-0.7,0.6-1.2,1.3-1.2h0.3l19.1,5.4c0.6,0.2,0.9,0.6,0.8,1.2C509.6,384.5,499.7,404.5,482.1,399z"/>
		<path class="st2" d="M285.4,399.3l-0.9,4.3c-1.9-0.5-2.8-0.9-2.8-1.3C281.7,400.7,282.9,399.7,285.4,399.3z"/>
		<path class="st2" d="M773.1,407.6c-0.6,0.6-1,1.8-1.1,3.7l-2.4-4.8c-0.3-0.6-0.1-0.9,0.6-0.9C772,405.7,773,406.3,773.1,407.6z"/>
		<path class="st1" d="M268.7,434.3c1.1,0.5,2,0.7,2.4,0.7c-0.1,1.6,1,2.3,3.3,2c2.8-0.4,4.9-0.5,6-0.3l-0.4,3.1l-12.3-1.9
			c-0.7-0.1-0.9-0.5-0.5-1.1L268.7,434.3z"/>
		<path class="st2" d="M760.1,435.7c0.8,0.4,1.3,1.1,1.1,1.5s-1.1,0.4-1.9,0c-0.8-0.4-1.3-1.1-1.1-1.5S759.3,435.3,760.1,435.7z"/>
		<path class="st1" d="M783.2,577l7.4,26.6c0.1,0.3-0.1,0.6-0.4,0.7c-0.2,0-0.3,0-0.5-0.1c-4.1-2.8-8.7-4.5-13.7-4.9
			c-0.5-0.1-1,0.3-1,0.8v0.1c-0.2,3.8,0.2,7,1.1,9.7c4.8,14.1,10.4,28.2,12.5,43c0.1,0.5-0.3,1-0.8,1c-0.4,0-0.8-0.2-1-0.6
			c-1.4-3.7-5.2-15.7-11-12.9c-1.5,0.7-2.1,1.9-1.9,3.6c1.7,12.1,1.3,24.1-1.3,36.1c-0.1,0.4-0.4,0.7-0.9,0.7l-81.9,0.1
			c-0.7,0-1.1-0.3-1.4-0.9c-24.6-50.2-93.5-62.3-128.8-16c-2.5,3.3-4.8,8.7-6.7,16.3c-0.1,0.5-0.5,0.8-1,0.8h-76.7
			c-0.5,0-0.8-0.2-0.9-0.7c-8.6-27.3-27-42.1-55-44.6c-30.7-2.7-68.1,12.6-79.3,43.9c-0.2,0.5-0.7,0.9-1.2,0.9l-79.8,0.6
			c-1.8,0-2.9-0.9-3.3-2.6c-2.3-10.2-2.6-21.1-0.9-32.8c0.3-2,0.1-3.6-0.7-4.9c-0.3-0.6-1-0.9-1.7-0.9c-5.8,0.7-9.1,8.9-10.9,13.7
			c-0.2,0.4-0.7,0.7-1.1,0.5c-0.3-0.1-0.6-0.4-0.6-0.8c-0.5-17.5,15.8-35.5,14.9-52.5c-0.1-1.2-1.1-2.2-2.3-2.1
			c-0.3,0-0.6,0.1-0.8,0.2l-10.1,4.9c-0.3,0.2-0.7,0-0.9-0.3c-0.1-0.2-0.1-0.4,0-0.5c3.6-9.4,6.3-18.8,7.9-28.4l4.3,1.7
			c0.7,0.3,1.1,0.8,1.3,1.5l2.7,9c0.2,0.7,0.9,1.2,1.6,1.2l8,0.1c1,0,1.9,0.7,2.2,1.7c2.9,10.7,4.5,21.5,4.8,32.5
			c0.6,18.9-0.4,48.4,28.7,40.9c18.7-4.8,19.4-28.6,18-45.3c-0.9-11.1-1.6-22.2-2-33.3c0-0.6,0.2-1.1,0.7-1.5l4.3-3.5
			c0.8-0.6,1.9-0.5,2.6,0.3c0.1,0.1,0.2,0.3,0.3,0.4c1.2,2.9,2.6,7.6,6,8.3c3.2,0.7,5-1,5.5-4.2c0.8-5.3,1.9-10.5,3.3-15.6
			c0.1-0.4,0.5-0.6,0.9-0.5c0.2,0.1,0.3,0.2,0.4,0.4c2.5,4.5,4.6,10,6.8,13.5c14.8,23.4,37.3,19.4,60.8,15.7
			c30.3-4.7,59.7,19.2,82.9,34.6c17.7,11.8,31.1,7,48.2-4.2c22.3-14.7,39.2-26.9,63.3-29.5c11.7-1.3,26,1.7,37,1.9
			c23.6,0.5,35.3-13.1,45.9-32.5c0.3-0.6,1-0.8,1.6-0.5c0.3,0.2,0.5,0.5,0.6,0.8c1.2,6.6,2.5,12.9,3.8,18.9c0.3,1.1,0.5,1.8,0.6,2
			c1.2,1.5,3.8,1.6,6,0.3c1.6-1,2.9-2.3,4-4.1c0.9-1.6,3-2.1,4.5-1.2c0.8,0.5,1.4,1.3,1.6,2.3c3.5,21.2-11.1,72.2,21.9,77
			c18.6,2.7,24.6-12.7,24.4-28.2c-0.1-15.1,1.6-37.5,9.1-50.8c0.2-0.4,0.7-0.6,1.2-0.5l6.9,2c0.3,0.1,0.6,0,0.8-0.1
			C778.2,584.2,779,576.1,783.2,577z"/>
		<path class="st3" d="M240.3,616.3l-0.7-2.1c0-0.5,0.2-1,0.7-1.3c0.4-0.3,1-0.1,1.3,0.3l0.1,0.3C242,614.4,241.5,615.4,240.3,616.3
			z"/>
		<path class="st0" d="M593.2,681.1c-0.7,0-1.2-0.5-1.2-1.2v-0.1c1.8-14.3,11-35.9,28.9-34.7c25,1.7,44,13.3,57,34.8
			c0.5,0.8,0.3,1.2-0.7,1.2H593.2z"/>
		<path class="st0" d="M349.9,680.8c-0.4,0-0.6-0.3-0.6-0.6l0.1-0.3c11.9-20.1,29.7-31.5,53.4-34.4c19.9-2.4,26.8,19.2,29.1,34.3
			c0.1,0.6-0.2,0.9-0.8,0.9L349.9,680.8z"/>
		<path class="st0" d="M582.8,681.7l-19.9-0.7c-0.9,0-1.1-0.4-0.8-1.2c7.1-17.3,19.7-28.6,37.7-33.8l0.2,0.1l-0.1,0.2
			c-10.1,9.2-15.5,20.8-16.2,34.7C583.7,681.3,583.3,681.7,582.8,681.7z"/>
		<path class="st0" d="M425.8,646.7v-0.5l0.3-0.1c18.7,4.4,31.4,15.4,38.3,33.2c0.5,1.2,0.1,1.8-1.2,1.8h-22.3
			c-0.6,0-1.1-0.5-1.1-1.1C439.6,666.9,434.9,655.8,425.8,646.7z"/>
		<path class="st0" d="M779.5,690.9c-177.1,0-354.2,0-531.4-0.1c-0.3,0-0.7-0.3-1.1-0.8c1.2-0.2,2.9-0.8,3.9-0.8
			c175.9,0,351.8,0,527.7,0c0.6,0,0.9,0.3,0.9,0.9C779.5,690.3,779.5,690.6,779.5,690.9z"/>
		<path class="st0" d="M432.1,254.3c-1.6-1.3-1.7-3.7-0.2-5.4c1.4-1.7,3.8-2,5.4-0.7s1.7,3.7,0.2,5.4S433.6,255.6,432.1,254.3
			L432.1,254.3z"/>
		<rect x="518" y="72.5" transform="matrix(0.4147 -0.91 0.91 0.4147 233.0252 520.8489)" class="st2" width="6.7" height="13.5"/>
		<polygon class="st2" points="276.7,406.6 263.7,407.6 263.3,405.2 276.5,404.1 		"/>
		<polygon class="st2" points="270.7,412.7 270.7,399.7 273.1,399.5 273.2,412.7 		"/>
		<path class="st2" d="M302.6,170.9l0.1,6.4c0,7.4,1.9,14.1,5.7,20.3c3.4,5.5,9.5,8.2,3,15.7c-0.4,0.4-0.6,1-0.6,1.5
			c-0.2,3-1.2,5.6-3.2,7.7c-0.4,0.4-0.7,1-0.8,1.5c-0.2,1.1-0.4,1.9-0.7,2.3c-10.3,15.4-17.6,32-22,50c-1.4,5.8-4.2,9.8,1.2,14.8
			c0.4,0.4,0.7,0.9,0.7,1.5c0,3.2-0.9,6.8-2.8,11c-1.2,2.6-2.9,8.2-5.1,16.9c-3.6,13.7-4.9,29.4-8.4,42.8
			c-3.3,12.7-9.2,24.8-17.7,36.2c-0.3,0.5-0.5,1-0.4,1.5c0.7,6.7,6.7,6.8,12.3,6.4c2.8-1.4,5.6-2,8.5-1.7c0.2,0,0.3,0.1,0.4,0.2
			c0.4,0.3,0.5,0.8,0.2,1.2c-0.9,1.2-1.6,1.4-2.1,0.8c-0.1,6.9-9.1,19.4-13.8,26.3c-0.3,0.5-0.4,1.1-0.3,1.6c1,3.5,3.4,5.6,7.2,6.2
			c0.5,0.1,1,0.5,1.1,1c1.1,3.5-1,4.6-2.1,7c-8.6,17.7-15.8,32-18.6,51.9c-0.8,5.7,3.8,7.4,7.9,8.2l0.3,0.1c1,0.4,1.6,1.5,1.2,2.6
			c-5.5,14.7-9.4,28.9-11.7,42.7c-2.2,13.6-4.6,24.7-7.1,33.5c-0.5,1.8-0.8,3.4-0.9,4.6c0,0.5-0.2,0.9-0.5,1.3
			c-2.7,3.3-4.1,9.2-5.5,13.4c-0.2,0.5-0.2,1.1,0,1.6c2.4,6.3,6.7,3.8,11.6,4.3c0-0.5,0.2-1,0.7-1.3l0.3-0.1c0.5-0.1,1,0.2,1.2,0.7
			c0.3,1-0.2,2-1.4,2.9c-2.3,6.7-4.5,13.4-6.8,20.1c-0.8,2.3-1.8,7.8-3,16.5c-0.7,5.3,1.2,8.8,5.7,10.7c0.5,0.2,1.1,0.1,1.5-0.2
			c1.5-1.2,3.2-1.6,5-1.2c0.8,0.2,1.4,0.8,1.5,1.6L247,690c1.2-0.2,2.9-0.8,3.9-0.8c175.9,0,351.8,0,527.7,0c0.6,0,0.9,0.3,0.9,0.9
			c0,0.2,0,0.5,0,0.8l3-10.7c0.2-0.6,0.1-1.2-0.1-1.7c-1.3-3.1-1.2-6.1,0.3-9.1c0.2-0.4,0.3-1,0.2-1.5c-0.3-2.1,0.2-3.9,1.6-5.4
			c0.4-0.4,0.9-0.6,1.5-0.5l9.1,0.5c0.6,0,1.1-0.3,1.3-0.9c2.6-7.2,1.4-12.5-0.4-21c-1.8-8.4-4.6-16.6-8.4-24.4
			c-0.1-0.2-0.1-0.4-0.1-0.6c0-0.8,0.6-1.4,1.4-1.5c4.8-0.2,17.1,2.5,13-7.8c-3.5-8.7-6.3-16.4-8.3-23c-2.1-6.7-2.5-14.8-4.2-22.2
			c-1.1-4.8-0.7-10.1-2-15.1c-2.1-8.1-4-17.1-6.7-23.4c-1.6-3.8-2.7-7.7-3.3-11.9c0-0.2,0-0.5,0.1-0.7c0.3-0.9,1.2-1.4,2-1.1
			c1.4,0.4,2.8,0.3,4.2-0.3c0.3-0.2,0.6-0.5,0.9-0.8c0.6-0.7,1.4-1,2.3-0.8c0.4,0.1,0.8,0,1.1-0.4c3.7-4.6,0.7-7.1,0.4-11.6
			c-1-16.6-9.7-33.7-17.3-48.2c-0.2-0.3-0.3-0.6-0.3-0.9c-0.2-1.5,0.9-2.9,2.4-3.1l6.7-0.8c0.7-0.1,1.2-0.4,1.7-0.9
			c3.2-3.5,2.4-7.8-0.4-11.6c-4.2-5.6-7.2-11.7-9-18.2l-2.4-4.8c-0.3-0.6-0.1-0.9,0.6-0.9c1.8,0,2.8,0.7,3,2
			c7.7,0.3,18.7,2.3,20-6.4c0.1-0.6,0-1.1-0.4-1.6c-5.7-7.8-10.1-16.2-13.4-25.2c-7.4-20.3-6.2-45.5-14.4-67.1
			c-1.5-3.9-3-8.1-4.6-12.4c-0.1-0.2-0.1-0.4-0.1-0.6c-0.2-1.5,0.8-2.9,2.4-3.1c5.6-0.8,3.9-6.7,2.7-11.6
			c-5-21.3-13.8-40.9-26.6-58.7c-0.3-0.5-0.5-1-0.5-1.6v-13c0-1.8,1.5-3.3,3.3-3.3c0.5,0,0.9-0.2,1.2-0.6
			c8.2-11.7,11.1-24.7,8.9-39.1c-1.1-7.1-3-14.6-3.1-21.8c0-4.6-1.8-8.8-1.7-13.2c0.2-8.3,0-16.5-0.7-24.8
			c-0.7-8.4-2.3-15.2-4.9-20.5c-5.8-11.7-15.3-19.9-28.3-24.5c-1.8-0.6-3.7-0.5-5.8-1.9c-0.3-0.2-0.7-0.4-1.1-0.4
			c-7.7,0-15.6-0.7-23.3,1c-2,0.4-4.4,0.8-7.2,1.1c-7.7,0.7-23.1,4.2-46,10.3c-11.5,3.1-20,5-25.4,5.6c-0.7,0.1-1.3-0.3-1.6-0.8
			c-0.9-1.5-1.1-3.1-0.6-4.9c0.1-0.5,0-1.1-0.4-1.5c-10.2-11.5-57.6,1.9-71,7.5c-1.9,0.8-3.7,0.8-5.5,0
			c-13.8-5.9-61.3-19.1-72.9-7.6c-0.4,0.4-0.6,1-0.5,1.6c0.3,2.2-0.2,4.1-1.5,5.6c-0.4,0.5-1.1,0.6-1.6,0.3
			c-2.8-1.5-5.7-0.9-8.4-1.8C422.5,66.9,402,62,385.6,58.8c-7.4-1.5-14.8-2.5-22.3-3c-21.7-1.4-41,10.6-49.4,30.7
			c-0.2,0.5-0.3,1.1-0.1,1.7c0.4,1.8,0,3.3-1.3,4.5c-0.4,0.4-0.7,0.8-0.9,1.3 M637.4,76.7c20-5.9,50.5-14.4,69.1-10.2
			c17.8,4.1,30.4,19.5,30.7,38.6c0.1,8.3,0.4,16.7,0.7,25.1c1.5,12.4,3.1,24.9,4.7,37.4c1.3,10.5-1.1,20.2-7.5,29.2l-0.4,0.3
			c-0.4,0.1-0.8-0.1-0.9-0.5c-3.5-11-8.6-21.2-15.3-30.7c-4.4-6.2-10.9-12-16.6-17.8c-0.4-0.4-0.4-1-0.2-1.4c4.8-7.8-9-14.5-14.4-17
			l-0.2-0.1c-0.3-0.3-0.4-0.8-0.1-1.1c14.2-17.8-18.6-25.7-30-28.9l-2.4-0.7c-0.5-0.2-0.6-0.4-0.3-0.9c10.8-12.6-8.7-18.3-16.9-20.4
			C636.2,77.3,636.2,77,637.4,76.7z M317.2,136.5c1.9-13.3,0.4-29.5,3-40.3c4.8-20.4,22.8-33.1,44.1-31c18.1,1.8,35.8,5.3,53.2,10.4
			c0.2,0.1,0.3,0.2,0.3,0.4c0.1,0.3-0.1,0.5-0.4,0.6c-5.9,1.2-17.4,4-19.7,9.8c-1.3,3.2-0.6,6.9,2.1,11.3c-10,2.2-51.3,12.7-33,30.3
			l0.2,0.3c0.1,0.4-0.1,0.7-0.4,0.9c-5.7,2.1-21.6,9.3-17.2,17.7c0.3,0.6,0.2,1.1-0.3,1.6c-14.7,11.9-25.1,26.8-31.1,44.7
			c-0.1,0.3-0.3,0.5-0.6,0.6c-0.5,0.3-1.2,0.1-1.5-0.5C307.4,176.2,314.1,154.2,317.2,136.5z M431.1,680.6l-81.2,0.2l-0.3-0.1
			c-0.3-0.2-0.4-0.6-0.2-0.9c11.9-20.1,29.7-31.5,53.4-34.4c19.9-2.4,26.8,19.2,29.1,34.3C432,680.3,431.7,680.6,431.1,680.6z
			 M463.1,681.1h-22.3c-0.6,0-1.1-0.5-1.1-1.1c-0.1-13.1-4.8-24.2-13.9-33.3l-0.1-0.3c0-0.2,0.2-0.3,0.4-0.3
			c18.7,4.4,31.4,15.4,38.3,33.2C464.8,680.5,464.4,681.1,463.1,681.1z M582.8,681.7l-19.9-0.7c-0.9,0-1.1-0.4-0.8-1.2
			c7.1-17.3,19.7-28.6,37.7-33.8l0.2,0.1l-0.1,0.2c-10.1,9.2-15.4,20.8-16.2,34.6C583.7,681.3,583.3,681.7,582.8,681.7z M677.2,681
			l-84,0.1h-0.1c-0.7-0.1-1.1-0.7-1-1.3c1.8-14.3,11-35.9,28.9-34.7c25,1.7,44,13.3,57,34.8C678.4,680.6,678.2,681,677.2,681z
			 M776,609.9c4.8,14.1,10.4,28.2,12.5,43c0,0.4-0.2,0.8-0.6,1c-0.5,0.2-1,0-1.2-0.5c-1.4-3.7-5.2-15.7-11-12.9
			c-1.5,0.7-2.1,1.9-1.9,3.6c1.7,12.1,1.3,24.1-1.3,36.1c-0.1,0.4-0.4,0.7-0.9,0.7l-81.9,0.1c-0.7,0-1.1-0.3-1.4-0.9
			c-24.6-50.2-93.5-62.3-128.8-16c-2.5,3.3-4.8,8.7-6.7,16.3c-0.1,0.5-0.5,0.8-1,0.8h-76.7c-0.5,0-0.8-0.2-0.9-0.7
			c-8.6-27.3-27-42.1-55-44.6c-30.7-2.7-68.1,12.6-79.3,43.9c-0.2,0.5-0.7,0.9-1.2,0.9l-79.8,0.6c-1.8,0-2.9-0.9-3.3-2.6
			c-2.3-10.2-2.6-21.1-0.9-32.8c0.3-2,0.1-3.6-0.7-4.9c-0.3-0.6-1-0.9-1.7-0.9c-5.8,0.7-9.1,8.9-10.9,13.7c-0.1,0.3-0.4,0.6-0.8,0.6
			c-0.5,0-0.9-0.4-0.9-0.8c-0.5-17.5,15.8-35.5,14.9-52.5c0-0.3-0.1-0.6-0.2-0.8c-0.5-1.1-1.9-1.6-3-1l-10.1,4.9
			c-0.2,0.1-0.4,0.1-0.5,0c-0.3-0.1-0.5-0.5-0.4-0.8c3.6-9.4,6.3-18.8,7.9-28.4c4.5-30.6,10.4-47.5,19.1-71.6
			c0.4-1.2,0.2-2.6-0.8-3.7c-0.7-0.8-1.7-1.1-2.8-1.1h-1.5c-0.6,0-1.2,0.2-1.7,0.6c-1.6,1-3.3,1.4-5.3,1.1h-0.1
			c-0.8-0.2-1.3-0.9-1.1-1.7c4.3-21.6,15.2-38.9,25.9-58.3l-12.3-1.9c-0.6-0.1-0.8-0.6-0.5-1.1l1.4-2.4l15.8-30.8
			c-1.9-0.5-2.8-0.9-2.8-1.3c0-1.6,1.2-2.6,3.7-3l3.9-7.7c0.1-0.2,0.1-0.5,0-0.8c-0.2-0.4-0.7-0.5-1.1-0.3c-7.2,4.1-15,6.9-23.2,8.4
			l-0.4-0.1c-0.2-0.1-0.3-0.4-0.2-0.7c13.7-23.1,16.9-46.2,21.6-72.1c2.1-11.8,7.1-25.2,15-40.1c0.4-0.7,0.5-2.3,0.3-4.7
			c0-0.5-0.3-1-0.7-1.3c-2.3-1.7-4.6-1.5-6.9,0.5c-0.2,0.2-0.5,0.3-0.8,0.2c-0.5-0.1-0.8-0.6-0.6-1.1c7.9-29.4,22.6-54.7,44.2-75.9
			c2.1-2.1,2.3-4,0.6-5.9c-0.7-0.8-1.9-1.1-2.9-0.8l-7.1,2.3c-0.2,0.1-0.3,0.1-0.5,0c-0.4-0.1-0.6-0.6-0.5-1
			c6.5-20.3,18.7-36.4,36.4-48.1c0.9-0.6,1.3-1.8,0.8-2.7c-0.3-0.6-0.8-1.1-1.5-1.4c-0.5-0.2-0.9-0.6-1.1-1.1
			c-0.6-1.2-0.1-2.7,1.1-3.3c7.4-3.7,15.6-6.7,22.3-11.5c0.3-0.2,0.5-0.5,0.7-0.8c0.6-1.1,0.2-2.5-0.9-3.1l-10.6-5.8
			c-0.2-0.1-0.4-0.3-0.6-0.5c-0.6-0.8-0.4-1.9,0.4-2.5c9.6-7.2,24.7-9.6,36.3-11.7c2.7-0.5,4.8-1.6,6.3-3.4c0.6-0.7,0.5-1.8-0.1-2.4
			l-8.9-8.6c-0.6-0.6-0.6-1.1,0-1.7c7.8-7.3,40.2-7.6,48.9-6.8c5.7,0.5,11.2-3.1,7.4-8.7c-1-1.5-0.6-2.3,1.2-2.3
			C483.4,72,502,75.2,520,82c0.5,0.2,0.9,0.1,1.3-0.3l2.2-2.6c0.6-0.7,1.2-0.7,1.8-0.1c1.5,1.4,1.6,2.9,0.4,4.5
			c-0.2,0.3-0.3,0.7-0.2,1.1c0.2,0.6,0.9,1,1.5,0.7c20.9-7.2,40.8-12.8,62.7-13.7c1.2,0,1.7,0.8,1,1.8c-1.4,2.4-1.7,4.9-0.8,7.5
			c0.2,0.6,0.7,1,1.3,1.1c3,0.6,6,0.9,8.9,0.8c14.1-0.5,34.6,0.4,47.3,7.1c0.2,0.1,0.4,0.2,0.5,0.4c0.6,0.7,0.6,1.8-0.1,2.5L638,101
			c-0.4,0.3-0.7,0.8-0.8,1.3c-0.4,1.4,0.4,2.9,1.8,3.3c14.3,4,26.6,4.8,40.5,11.7c0.4,0.2,0.7,0.5,0.9,0.9c0.7,1.1,0.3,2.5-0.8,3.1
			l-9,5.4c-0.4,0.2-0.8,0.6-1,1c-0.8,1.4-0.3,3.1,1,3.9l18.6,10.9c0.6,0.4,0.9,0.9,1,1.6c0.1,1.3-0.5,2.2-1.9,2.8
			c-2.1,0.8-2.3,1.9-0.4,3.2c18.1,12.3,30.5,28.9,37.4,49.7c0.1,0.4,0,0.9-0.3,1.2c-0.5,0.4-1.2,0.4-1.6-0.1c-2.1-2.4-4.7-3.3-8-2.9
			c-0.4,0.1-0.8,0.2-1.2,0.4c-1.5,0.9-2,2.8-1.2,4.3s1.9,2.9,3.2,4.3c19.2,20.7,32.6,45,40.3,72.9c0.1,0.3,0,0.7-0.2,1
			c-0.4,0.5-1.1,0.6-1.6,0.2c-2.1-1.6-4.4-2.1-7-1.8c-0.6,0.1-1.1,0.6-1.2,1.3c-0.3,2.6,0.1,4.9,1.1,7.1
			c8.8,18.7,14.5,39.3,16.9,61.6c1.8,16.9,7.2,33.3,16.1,49.3c0.4,0.7,0.2,0.9-0.6,0.8c-8.4-1.6-16.4-4.5-23.9-8.6
			c-0.2-0.1-0.5-0.1-0.7,0c-0.4,0.2-0.5,0.7-0.3,1l4.3,8.6l0.1,0.3c1.9,12.9,7.7,23.1,14.3,35.2c0.3,0.6,0.1,0.8-0.5,0.7l-14.4-3
			c-0.8-0.2-1.2,0.2-1.3,0.9c-0.5,4.2,0.3,8.2,2.3,11.8c9.6,17.2,17.5,33,19.9,52.9c0,0.2,0,0.4,0,0.5c-0.2,0.9-1,1.4-1.9,1.2
			l-11.5-2.7c-0.6-0.1-0.8,0.1-0.8,0.7c0.2,4.7,0.8,8.3,1.7,10.8c8.1,21.7,13.3,44.2,15.6,67.4l7.4,26.6c0,0.2,0,0.3-0.1,0.5
			c-0.2,0.2-0.5,0.3-0.8,0.1c-4.1-2.8-8.7-4.5-13.7-4.9h-0.1c-0.5,0-1,0.4-1,0.9C774.8,604,775.1,607.2,776,609.9z M761.2,437.3
			c-0.2,0.4-1.1,0.4-1.9,0c-0.8-0.4-1.3-1.1-1.1-1.5s1.1-0.4,1.9,0C760.9,436.1,761.4,436.8,761.2,437.3z"/>
		<polygon class="st2" points="311,94.7 312.5,95.2 315.3,87.1 313.4,86.9 		"/>
		<polygon class="st2" points="735.6,206.8 737.6,208.5 742.6,202.4 741.5,199.6 		"/>
		<path class="st4" d="M884.9,688.5c0.6,1.3,1.7,2.3,3.1,2.9l1.4-3.1c-0.7-0.3-1.1-0.7-1.5-1.4L884.9,688.5z"/>
		<polyline class="st5" points="142.4,723.2 141.6,898.9 145.1,898.9 145.8,723.2 		"/>
		<path class="st4" d="M141.6,898.8c-0.1,2.2-0.2,4.4-0.2,6.5c0,2.9,0.1,5.6,0.3,8.2c0.9,11.3,5.8,20.8,13.2,27.5
			c7.5,6.7,17.5,10.5,28.7,10.5h0.2c100.8-0.4,201.5-0.6,302.3-0.6c103.4,0,206.8,0.2,310.3,0.6c1.7,0,3.6,0,5.6,0
			c9.5,0,22.4-0.1,38.8-0.2c7.2-0.1,14.8-0.7,21.4-3.7c9.1-4.1,15-11.1,18.5-19.2c3.5-8.1,4.8-17.3,4.8-26.2c0-1.6,0-3.1-0.1-4.7
			l-3.4,0.2c0.1,1.5,0.1,3,0.1,4.5c0,8.6-1.2,17.3-4.5,24.8s-8.5,13.7-16.8,17.4c-5.9,2.7-13,3.3-20,3.4
			c-16.4,0.1-29.3,0.2-38.8,0.2c-2,0-3.9,0-5.6,0c-103.4-0.4-206.8-0.6-310.3-0.6c-100.8,0-201.5,0.2-302.3,0.6h-0.2
			c-10.4,0-19.6-3.5-26.4-9.6c-6.8-6.1-11.3-14.7-12.1-25.2c-0.2-2.5-0.3-5.1-0.3-7.9c0-2,0.1-4.1,0.2-6.3L141.6,898.8z"/>
		<path class="st5" d="M885.4,897.7V794.3l-0.1-0.4l-0.1-0.3l-1.7,0.4h1.7c0-0.4,0-0.7,0-1.1c0-23.6,0-47.2,0-70.9h-3.4
			c0,23.7,0,47.3,0,70.9c0,0.4,0,0.7,0,1.1v0.2l0.1,0.5l0,0v0.2l1.7-0.4h-1.7v103.2H885.4z"/>
		<path class="st6" d="M885.2,721.8c-1.1-6.1-3.1-11.5-6.2-16.4c-2.9-4.5-6.4-8-10.6-10.6c-4.2-2.6-9.1-4.3-14.5-5
			c-9.4-1.2-19.2-1.2-29.4-1.2c-79.4-0.3-158.8-0.4-238.2-0.4c-70.6,0-141.2,0.1-211.8,0.3c-11.3,0-22.5,0-33.8,0
			c-27.1,0-54.3-0.1-81.4-0.1c-25.1,0-50.2,0.1-75.2,0.3c-5.9,0.1-12.7,0.6-18.4,2.7c-7,2.6-12.3,7-16.1,12.5s-6.1,12-7.2,19
			l3.4,0.6c1.1-6.6,3.2-12.7,6.7-17.7c3.4-5,8.1-8.8,14.5-11.2c5-1.9,11.5-2.4,17.2-2.5c25.1-0.2,50.1-0.3,75.2-0.3
			c27.1,0,54.3,0.1,81.4,0.1c11.3,0,22.5,0,33.8,0c70.6-0.2,141.2-0.3,211.8-0.3c79.4,0,158.8,0.1,238.2,0.4c10.2,0,19.9,0,28.9,1.2
			c5,0.6,9.4,2.1,13.1,4.5c3.8,2.3,6.9,5.5,9.5,9.6c2.8,4.4,4.8,9.5,5.7,15.1L885.2,721.8z"/>
		<path class="st7" d="M882.5,720.7c-1.2,0.9-2.2,1.5-3,1.9l-0.3,0.1c-0.1,0-0.2,0-0.5-0.2l-1,1.3l1.4-1l-0.3-0.4l-1.4,1l1.6-0.6
			c-3.5-9.8-9.8-19.6-19.5-24.9c-3.6-1.9-7.1-2.9-10.5-2.9c-223.9,0-447.9,0-671.8,0c-4.2,0-8.1,1.2-11.4,3.2
			c-3.4,2-6.3,4.7-8.8,7.8c-4.4,5.4-9,10.7-13.7,15.9l1.3,1.2l-0.8-1.5l-0.3,0.1l0.8,1.5l-0.1-1.7H144l0.3,3.4h0.2h0.3l0.5-0.3
			l0.3-0.1l0.2-0.2c4.8-5.2,9.4-10.6,13.8-16.1c2.3-2.9,4.9-5.3,7.9-7c2.9-1.7,6.1-2.7,9.7-2.7c223.9,0,447.9,0,671.8,0
			c2.7,0,5.7,0.8,8.9,2.5c8.7,4.6,14.6,13.7,17.9,23l0.1,0.2l0.4,0.5l0.1,0.2l0.2,0.2c0.7,0.6,1.7,1,2.6,1c0.6,0,1.1-0.1,1.7-0.4
			c1.2-0.5,2.4-1.3,3.7-2.3L882.5,720.7z"/>
		<path class="st8" d="M882.7,896.3c-1.4,0.9-2.8,1.9-4.2,2.9c-7.4,5.2-16,8.9-24.9,10c-1.6,0.2-3.8,0.3-6.6,0.3c-0.8,0-1.6,0-2.4,0
			c-9.8-0.2-19.7-0.3-29.5-0.3c-9.7,0-19.3,0.1-29,0.3c-2.7,0.1-5.3,0.1-7.8,0.1c-0.5,0-1,0-1.5,0c-24-0.1-48-0.1-72-0.1
			c-20.5,0-41,0-61.5,0.1c-2.3,0-4.7,0.5-6.8,0.5c-1.1,0-2.1-0.1-2.8-0.5l-1.3,3.1c1.4,0.6,2.8,0.7,4.2,0.7c2.5,0,5-0.5,6.8-0.5
			c20.5-0.1,41-0.1,61.5-0.1c24,0,48,0,72,0.1c0.5,0,1,0,1.5,0c2.5,0,5.1,0,7.8-0.1c9.6-0.2,19.3-0.3,28.9-0.3
			c9.8,0,19.6,0.1,29.4,0.3c0.9,0,1.7,0,2.5,0c2.9,0,5.2-0.1,7-0.3c9.6-1.2,18.6-5.2,26.4-10.6c1.3-0.9,2.7-1.9,4.1-2.8L882.7,896.3
			z"/>
		<path class="st5" d="M634.8,911.2c0.2-4.5,0.3-8.3,0.3-11.4c0-0.8,0-1.6,0-2.3c-0.1-4-0.5-8.8-2.3-12.9c-0.9-2-2.2-3.9-4.1-5.3
			c-1.8-1.4-4.2-2.2-7-2.3c-4.2-0.2-8.3-0.2-12.5-0.3c-28.6-0.2-57.1-0.3-85.7-0.3c-40.2,0-80.3,0.1-120.5,0.3c-3,0-5.6,0.7-7.6,2
			c-3.1,2-4.9,5.1-5.9,8.5s-1.3,7.2-1.3,10.8c0,3.1,0.2,6.1,0.4,8.5c0.1,1.1,0,2.6,0.2,4.2l3.4-0.4c-0.1-1.2-0.1-2.7-0.2-4.1
			c-0.2-2.4-0.4-5.3-0.4-8.2c0-4.5,0.5-9.2,2.2-12.5c0.9-1.7,1.9-3,3.4-3.9s3.3-1.5,5.8-1.5c40.2-0.1,80.3-0.3,120.5-0.3
			c28.6,0,57.1,0.1,85.7,0.3c4.1,0,8.3,0.1,12.4,0.3c2.2,0.1,3.8,0.7,5.1,1.7c1.9,1.4,3.2,3.8,4,6.6s1,6,1.1,8.9c0,0.7,0,1.4,0,2.2
			c0,2.9-0.1,6.7-0.3,11.2L634.8,911.2z"/>
		<path class="st8" d="M390.3,908.8c-26.5,0.3-53,0.4-79.5,0.4c-16.2,0-32.3,0-48.5,0c-27.9,0-55.8,0.1-83.7,0.4c-0.6,0-1.3,0-1.9,0
			c-3.2,0-5.6-0.1-7.1-0.4c-8.8-1.3-17-6.3-24.9-11.7l-0.2-0.1l-0.4-0.1l-0.2-0.1h-0.5l-0.1,3.4h0.2v-1.7l-0.5,1.6l0.2,0.1l0.5-1.6
			l-1,1.4c8,5.4,16.5,10.8,26.3,12.2c1.8,0.3,4.4,0.4,7.6,0.4c0.6,0,1.2,0,1.9,0c27.9-0.4,55.8-0.4,83.7-0.4c16.2,0,32.3,0,48.5,0
			c26.5,0,53-0.1,79.5-0.4L390.3,908.8z"/>
		<path class="st4" d="M631.4,911c-0.2,3.8-0.5,7.7-0.6,11.5c-0.1,2.3-0.6,4.1-1.2,5.5c-1,2-2.5,3.2-4.6,4.1
			c-2.1,0.8-4.9,1.1-8.1,1.1c-5.7,0-11.4,0-17.1,0c-65.4,0-130.8,0-196.2-0.1c-2.8,0-4.8-0.5-6.3-1.2c-2.3-1.1-3.5-2.8-4.3-5.1
			s-1-5.3-1-8.3c0-2.6,0.2-5.3,0.2-7.9h-3.4c0,2.5-0.2,5.2-0.2,8c0,2.2,0.1,4.3,0.5,6.4c0.5,3.1,1.7,6.1,4,8.3
			c1.2,1.1,2.7,2,4.4,2.5c1.8,0.6,3.8,0.9,6.2,0.9c65.4,0.1,130.8,0.1,196.2,0.1c5.7,0,11.4,0,17.1,0c4.6,0,8.7-0.5,11.9-2.7
			c1.6-1.1,2.9-2.6,3.8-4.4c0.9-1.9,1.4-4.2,1.6-6.8c0.2-3.8,0.4-7.7,0.6-11.5L631.4,911z"/>
		<path class="st7" d="M413.1,709.7c0-2.2-1.8-4-4-4l0,0l-23.8,0.3c-2.2,0-4,1.8-4,4v0.1v4c0,2.2,1.8,4,4,4h0.1l0,0l23.8-0.3
			c2.2,0,4-1.8,4-4l0,0L413.1,709.7h-3.4v4l0,0c0,0.3-0.3,0.6-0.6,0.6l-23.8,0.3l0,0l0,0c-0.3,0-0.6-0.3-0.6-0.6v-4l0,0l0,0
			c0-0.3,0.3-0.6,0.6-0.6l23.8-0.3l0,0c0.3,0,0.6,0.3,0.6,0.6H413.1z"/>
		<path class="st7" d="M296.3,722.1L296.3,722.1c0-0.5-0.1-0.9-0.3-1.2c-0.3-0.6-0.7-0.9-1.1-1.2c-0.6-0.4-1.3-0.7-2.1-0.9
			c-0.8-0.2-1.7-0.3-2.6-0.4c-0.2,0-0.4,0-0.6,0c-1.3,0-2.5,0.2-3.5,0.5c-0.5,0.2-1,0.4-1.4,0.8c-0.2,0.2-0.4,0.4-0.6,0.7
			s-0.3,0.7-0.3,1.1v0.1c0,0.4,0.1,0.8,0.3,1.1c0.3,0.6,0.7,0.9,1.1,1.2c0.6,0.4,1.3,0.7,2.1,0.9c0.8,0.2,1.7,0.3,2.6,0.4
			c0.2,0,0.4,0,0.6,0c1.3,0,2.5-0.2,3.5-0.5c0.5-0.2,1-0.4,1.4-0.8c0.2-0.2,0.4-0.4,0.6-0.7C296.2,722.9,296.3,722.5,296.3,722.1
			l-3.4-0.1h1l-0.9-0.5c-0.1,0.1-0.1,0.3-0.1,0.5h1l-0.9-0.5l0.5,0.3l-0.4-0.5l-0.1,0.1l0.5,0.3l-0.4-0.5l0.1,0.1l-0.1-0.1l0,0
			l0.1,0.1l-0.1-0.1c0,0-0.4,0.2-0.8,0.3c-0.5,0.1-1.1,0.2-1.8,0.2c-0.2,0-0.3,0-0.5,0c-1.1,0-2.1-0.3-2.6-0.5
			c-0.3-0.1-0.5-0.2-0.5-0.3l-0.1,0.1l0.2-0.1l0,0l-0.1,0.1l0.2-0.1l-0.7,0.6h0.9c0-0.3-0.1-0.5-0.2-0.6l-0.7,0.6h0.9H286h1.1l0,0
			H286h1.1h-1l0.9,0.5c0.1-0.1,0.1-0.3,0.1-0.5h-1l0.9,0.5l-0.5-0.3l0.4,0.5l0.1-0.1l-0.5-0.3l0.4,0.5l-0.1-0.1l0.1,0.1l0,0
			l-0.1-0.1l0.1,0.1c0,0,0.4-0.2,0.8-0.3c0.5-0.1,1.1-0.2,1.8-0.2c0.2,0,0.3,0,0.5,0c1.1,0,2.1,0.3,2.6,0.5c0.3,0.1,0.5,0.2,0.5,0.3
			l0.1-0.1l-0.2,0.1l0,0l0.1-0.1l-0.2,0.1l0.7-0.6h-0.9c0,0.3,0.1,0.5,0.2,0.6l0.7-0.6h-0.9h1.1h-1.1l0,0h1.1h-1.1L296.3,722.1z"/>
		<path class="st7" d="M248.9,722.3L248.9,722.3c0-0.6-0.1-1-0.3-1.3c-0.3-0.6-0.7-0.9-1.2-1.1c-0.6-0.4-1.3-0.6-2.1-0.8
			s-1.7-0.3-2.6-0.4c-0.3,0-0.5,0-0.7,0c-1.3,0-2.4,0.2-3.4,0.5c-0.5,0.2-1,0.4-1.4,0.7c-0.2,0.2-0.4,0.4-0.6,0.7
			c-0.2,0.3-0.3,0.7-0.3,1.1l0,0v0.1c0,0.5,0.1,0.9,0.3,1.2c0.3,0.6,0.7,0.9,1.2,1.1c0.6,0.4,1.3,0.6,2.1,0.8s1.7,0.3,2.6,0.4
			c0.2,0,0.5,0,0.7,0c1.3,0,2.4-0.2,3.4-0.5c0.5-0.2,1-0.4,1.4-0.7c0.2-0.2,0.4-0.4,0.6-0.7S248.9,722.7,248.9,722.3l-3.4-0.2
			l1.1,0.1l-0.9-0.6c-0.1,0.1-0.2,0.3-0.2,0.5l1.1,0.1l-0.9-0.6l0.6,0.4l-0.5-0.5l-0.1,0.2l0.6,0.4l-0.5-0.5l0.1,0.1l-0.1-0.1l0,0
			l0.1,0.1l-0.1-0.1c0,0-0.4,0.2-0.8,0.3c-0.5,0.1-1.1,0.2-1.9,0.2c-0.2,0-0.4,0-0.6,0c-1.1,0-2.1-0.3-2.7-0.5
			c-0.3-0.1-0.5-0.2-0.5-0.2l-0.3,0.4l0.4-0.3l-0.1-0.1l-0.3,0.4l0.4-0.3l-0.9,0.5h1.1c0-0.2-0.1-0.4-0.1-0.5l-0.9,0.5h1.1h-1.2
			l1.2,0.1V722h-1.2l1.2,0.1l0,0l-1.1-0.1l0.9,0.6c0.1-0.1,0.2-0.3,0.2-0.5l-1.1-0.1l0.9,0.6l-0.6-0.4l0.5,0.5l0.1-0.2l-0.6-0.4
			l0.5,0.5l-0.1-0.1l0.1,0.1l0,0l-0.1-0.1l0.1,0.1c0,0,0.4-0.2,0.8-0.3c0.5-0.1,1.1-0.2,1.9-0.2c0.2,0,0.4,0,0.6,0
			c1.1,0,2.1,0.3,2.7,0.5c0.3,0.1,0.5,0.2,0.5,0.2l0.3-0.4l-0.4,0.3l0.1,0.1l0.3-0.4l-0.4,0.3l0.9-0.5h-1.1c0,0.2,0.1,0.4,0.1,0.5
			l0.9-0.5h-1.1h1.2l-1.2-0.1v0.1h1.2l-1.2-0.1L248.9,722.3z"/>
		<path class="st5" d="M824,743.2c0-8.3-6.7-14.9-14.9-14.9H215.7c-8.3,0-14.9,6.7-14.9,14.9v112.7c0,8.3,6.7,14.9,14.9,14.9h593.4
			c8.3,0,14.9-6.7,14.9-14.9L824,743.2h-3.4v112.7c0,3.2-1.3,6.1-3.4,8.2c-2.1,2.1-5,3.4-8.2,3.4H215.7c-3.2,0-6.1-1.3-8.2-3.4
			c-2.1-2.1-3.4-5-3.4-8.2V743.2c0-3.2,1.3-6.1,3.4-8.2c2.1-2.1,5-3.4,8.2-3.4h593.4c3.2,0,6.1,1.3,8.2,3.4c2.1,2.1,3.4,5,3.4,8.2
			H824z"/>
		<path class="st4" d="M766.2,746.2h-0.4c-0.5,0-1,0.1-1.5,0.3l0.6,1.6l0.2-1.7h-0.4l-0.2,1.7l0.9-1.4c-1.1-0.7-2.3-1-3.5-1
			c-1.5,0-2.9,0.5-4,1.4s-2,2.1-2.5,3.5l0,0c-0.8,2.3-1.2,4.8-1.4,7.6c-0.2,3.2-0.3,6.4-0.3,9.7c0,6,0.3,12.1,0.6,18
			c0,0.8,0.3,1.5,0.7,2c0.7,1,1.7,1.6,2.7,2.1c1.5,0.7,3.3,1,4.9,1.2c1.6,0.2,3.2,0.2,4.1,0.3c1.7,0,3.3,0,5,0
			c10.1,0,20.2-0.2,30.2-0.7l-0.2-3.4c-10,0.5-20,0.7-30.1,0.7c-1.6,0-3.3,0-4.9,0c-1.4,0-3.9-0.1-6-0.6c-1-0.2-1.9-0.6-2.5-0.9
			c-0.3-0.2-0.4-0.3-0.5-0.5l-0.1-0.3c-0.3-5.9-0.6-11.9-0.6-17.8c0-3.2,0.1-6.3,0.3-9.4c0.2-2.6,0.6-4.9,1.3-6.8l0,0
			c0.3-0.8,0.7-1.5,1.3-1.9c0.6-0.5,1.3-0.7,1.9-0.7c0.5,0,1.1,0.1,1.7,0.5l0.3,0.2l0.8,0.1h0.4l0.4-0.2h0.2l0,0L766.2,746.2z"/>
		<path class="st5" d="M803.6,789.3c2.3-7.3,2.8-14.3,2.8-21.4c0-3.6-0.1-7.3-0.2-11.1c-0.1-2.8-0.6-5.5-2.1-7.8
			c-0.7-1.1-1.7-2.1-2.9-2.8s-2.6-1.2-4.2-1.4c-2.5-0.3-5.3-0.4-8.5-0.4c-1.4,0-2.9,0-4.4,0.1c-6.1,0.2-12.2,0.7-18.3,1.5l0.5,3.4
			c6-0.8,11.9-1.3,17.9-1.5c1.5-0.1,2.9-0.1,4.3-0.1c3.1,0,5.8,0.1,8.1,0.4c1.2,0.1,2.1,0.5,2.9,0.9c1.1,0.7,1.9,1.6,2.5,2.9
			c0.6,1.3,0.9,2.9,0.9,4.7c0.1,3.8,0.2,7.4,0.2,11c0,7-0.5,13.6-2.6,20.4L803.6,789.3z"/>
		<path class="st8" d="M803.5,788.2c-0.6-1.5-0.8-2.6-0.8-3.1l0,0l0,0c0-1.8,0-3.7,0-5.6c0-6.1,0.1-13.1,0.3-21.3c0-0.4,0-0.8,0-1.2
			c0-1.8-0.1-3-0.4-4.1c-0.4-1.2-1.2-2.5-2.3-3.7c-0.5-0.6-1.1-1.1-1.8-1.5s-1.5-0.7-2.5-0.8h-0.4c-4.4,0.5-8.8,0.8-13.2,0.8
			c-5.3,0-10.6-0.4-15.9-1.2l-0.2,1.7l0.3-1.7l-0.2,1.4l1.1-0.9c-0.3-0.3-0.7-0.5-0.9-0.5l-0.2,1.4l1.1-0.9l-1.1,0.9h1.4
			c0-0.2,0-0.5-0.3-0.9l-1.1,0.9h1.4h-1l1,0.1v-0.1h-1l1,0.1l-3.4-0.5v0.4c0,0.3,0.1,0.8,0.4,1.3c0.4,0.4,0.9,0.7,1.2,0.7l0,0l0,0
			c5.4,0.8,10.9,1.2,16.4,1.2c4.5,0,9.1-0.3,13.6-0.8l0,0c0.1,0,0.3,0.1,0.7,0.3c0.5,0.3,1.2,0.9,1.7,1.6c0.5,0.6,0.9,1.4,1,1.7
			c0.1,0.4,0.3,1.5,0.3,3.1c0,0.3,0,0.7,0,1.1c-0.2,8.1-0.3,15.3-0.3,21.4c0,2,0,3.9,0,5.7l0,0c0,1.3,0.4,2.6,1.1,4.3L803.5,788.2z"
			/>
		<path class="st4" d="M438.3,746c-1.6,0.5-3.1,1.2-4.2,2.4s-1.8,2.8-2,4.5c-0.7,6-1,11.8-1,17.5c0,5.3,0.3,10.5,0.9,15.6l0,0
			c0.1,0.7,0.3,1.3,0.6,1.9c0.5,0.8,1.3,1.4,2.1,1.7c0.8,0.3,1.7,0.5,2.5,0.5c14,0.1,28,0.3,42,0.4h0.6l0.7-0.5l0.6-0.4l0.1-0.9
			l-3.4-0.3v0.2l1.7,0.2l-1-1.4l-0.3,0.2l1,1.4v-1.7c-14-0.1-28-0.2-42-0.4c-0.7,0-1.2-0.2-1.5-0.3l-0.3-0.3
			c-0.1-0.1-0.1-0.2-0.2-0.5l0,0c-0.6-4.9-0.9-10-0.9-15.2c0-5.6,0.3-11.3,1-17.1c0.1-1.2,0.5-2,1.1-2.6s1.4-1.1,2.6-1.5L438.3,746z
			"/>
		<path class="st5" d="M481.2,788.7c0.7-3.7,2.8-15.1,2.8-25.3c0-4.4-0.4-8.5-1.5-11.7c-0.6-1.6-1.3-3.1-2.4-4.2
			c-1.1-1.1-2.6-1.9-4.3-2c-4.9-0.3-9.8-0.4-14.5-0.4c-7.6,0-15,0.3-22.6,0.8l0.2,3.4c7.6-0.5,14.9-0.8,22.4-0.8
			c4.7,0,9.5,0.1,14.3,0.4c0.9,0.1,1.4,0.4,2.1,1c0.9,0.9,1.7,2.7,2.2,5.1c0.5,2.4,0.7,5.3,0.7,8.5c0,9.7-2,21.1-2.7,24.6
			L481.2,788.7z"/>
		<path class="st8" d="M480.5,787l-0.6,0.8l0.8-0.5C480.7,787.1,480.6,787,480.5,787l-0.6,0.8l0.8-0.5l-1,0.6h1.2
			c0-0.2-0.1-0.4-0.2-0.6l-1,0.6h1.2h-1l1,0.3v-0.3h-1l1,0.3l0.1-0.2v-0.5v-0.2v-0.2c-1.2-8.1-1.8-16.2-1.9-24.3c0-0.2,0-0.3,0-0.5
			c0-2.4,0.1-5.2,0.2-7.9v-0.1c0-1.6-0.4-3.1-1.4-4.3c-0.5-0.6-1.2-1-1.9-1.3c-0.7-0.3-1.6-0.4-2.4-0.4c-1.5,0-3.9,0-7.2,0
			c-3.8,0-8.9,0-15.2,0c-2.5,0-4.8,0.6-6.6,0.6c-0.9,0-1.6-0.1-2.3-0.4c-0.7-0.3-1.3-0.8-2-1.7l-2.8,2c0.9,1.4,2.1,2.3,3.3,2.9
			c1.2,0.6,2.5,0.7,3.7,0.7c2.4,0,4.7-0.6,6.6-0.6c6.3,0,11.4,0,15.2,0c3.4,0,5.8,0,7.2,0c0.5,0,0.9,0.1,1.2,0.2
			c0.4,0.2,0.6,0.4,0.8,0.7c0.2,0.4,0.4,0.9,0.3,1.7v0.1c0,2.6-0.2,5.4-0.2,7.9c0,0.2,0,0.4,0,0.5c0.1,8.3,0.7,16.6,1.9,24.8
			l1.7-0.2l-1.7-0.1v0.3l1.7,0.1l-1.6-0.5c-0.1,0.2-0.1,0.5-0.1,0.7c0,0.4,0.1,0.8,0.3,1.1c0.2,0.3,0.5,0.6,0.7,0.8L480.5,787z"/>
		<path class="st4" d="M503.5,745.9c-2.4,0.7-4.2,2.2-5.3,4c-1.2,1.8-1.7,4-1.9,6.2c-0.3,4.4-0.4,8.7-0.4,13.1
			c0,5.4,0.2,10.8,0.7,16.2c0.1,1.1,0.4,2.3,1.1,3.2c0.7,1,1.9,1.7,3.3,1.7c6.7,0.5,13.6,0.8,20.6,0.8c6.8,0,13.7-0.2,20.8-0.7
			l-0.2-3.4c-7,0.5-13.9,0.7-20.5,0.7c-7,0-13.8-0.3-20.4-0.8c-0.5-0.1-0.7-0.2-0.9-0.4c-0.2-0.3-0.4-0.8-0.5-1.5
			c-0.5-5.3-0.7-10.6-0.7-15.9c0-4.3,0.1-8.6,0.4-12.9c0.1-1.8,0.6-3.4,1.3-4.6c0.8-1.2,1.8-2.1,3.5-2.6L503.5,745.9z"/>
		<path class="st5" d="M542.7,790.4c0.9-0.2,1.9-0.5,2.7-1.2c0.4-0.4,0.8-0.8,1-1.3s0.4-1,0.5-1.6c0.4-2.8,1.5-12,1.5-20.8
			c0-4.7-0.3-9.2-1.3-12.9c-0.5-1.8-1.1-3.4-2.1-4.7c-0.5-0.6-1.1-1.2-1.8-1.6c-0.7-0.4-1.5-0.7-2.3-0.7c-4.5-0.3-9.1-0.4-13.6-0.4
			c-8,0-15.9,0.4-23.3,0.7l0.2,3.4c7.3-0.4,15.2-0.7,23.1-0.7c4.5,0,9,0.1,13.4,0.4c0.3,0,0.6,0.1,0.8,0.3c0.5,0.3,1,0.8,1.4,1.8
			c0.7,1.4,1.3,3.6,1.6,6.1s0.5,5.4,0.5,8.4c0,8.6-1.1,17.7-1.5,20.4c0,0.3-0.1,0.5-0.2,0.6c-0.1,0.2-0.1,0.2-0.3,0.3
			s-0.5,0.2-1,0.3L542.7,790.4z"/>
		<path class="st8" d="M544,788.7c-0.4-12.2-0.8-24.4-1.2-36.4c0-0.6-0.1-1.2-0.3-1.8c-0.3-0.8-0.9-1.6-1.7-2.1s-1.7-0.6-2.6-0.7
			c-4.8,0-9.6-0.2-14.5-0.2c-4.7,0-9.4,0.1-14.1,0.7c-0.4,0-0.8,0.1-1.1,0.1c-0.8,0-1.4-0.1-1.8-0.4c-0.4-0.2-0.8-0.6-1.2-1.3
			l-3,1.7c0.7,1.1,1.5,2.1,2.6,2.6c1.1,0.6,2.2,0.7,3.4,0.7c0.5,0,1,0,1.5-0.1c4.6-0.5,9.2-0.6,13.8-0.6c4.8,0,9.6,0.1,14.5,0.2
			c0.3,0,0.6,0,0.7,0.1c0.2,0.1,0.2,0.1,0.3,0.2c0.1,0.1,0.2,0.4,0.2,0.9c0.4,12,0.8,24.2,1.2,36.4L544,788.7z"/>
		<path class="st4" d="M569.4,746.5c-0.5,0-1.1-0.1-1.7-0.1h-0.3c-1,0-1.9,0.3-2.6,0.7c-1.3,0.8-2.2,2.1-2.8,3.4
			c-0.9,2-1.3,4.4-1.6,6.6c-0.2,2.2-0.3,4.2-0.3,5.5c0,1.1,0,2.2,0,3.3c0,6,0.3,12,0.8,18c0.1,0.9,0.2,1.7,0.4,2.5
			c0.3,1.2,0.9,2.3,2,3.1s2.4,1.1,4,1.2c13.7,0.1,24.7,0.1,33.1,0.1c2.6,0,5,0,7.1,0c0.9,0,1.7-0.4,2.3-0.9c0.8-0.8,1.2-1.7,1.4-2.6
			c0.2-0.9,0.3-1.8,0.3-2.6c0-0.3,0-0.6-0.1-0.9l-3.4,0.4c0,0.1,0,0.3,0,0.5c0,0.7-0.1,1.6-0.4,2.2c-0.1,0.3-0.2,0.5-0.3,0.5l0,0
			l0.1,0.1v-0.1h-0.1l0.1,0.1v-0.1c-2.1,0-4.5,0-7.1,0c-8.4,0-19.4,0-33.1-0.1c-0.7,0-1.2-0.1-1.5-0.2c-0.5-0.2-0.7-0.4-0.9-0.9
			s-0.4-1.4-0.5-2.5c-0.5-5.9-0.8-11.8-0.8-17.7c0-1.1,0-2.2,0-3.3c0-1.8,0.1-5.4,0.8-8.3c0.3-1.5,0.8-2.8,1.4-3.5
			c0.3-0.4,0.6-0.7,0.8-0.8c0.3-0.2,0.5-0.2,0.9-0.2h0.2c0.5,0,1,0,1.5,0.1L569.4,746.5z"/>
		<path class="st5" d="M611.5,784.3c0.5-3.1,1.7-11.5,1.7-19.6c0-4.5-0.4-8.9-1.5-12.4c-0.6-1.8-1.4-3.3-2.5-4.6
			c-1.1-1.2-2.7-2.1-4.5-2.2c-4.2-0.3-8.4-0.4-12.7-0.4c-7.6,0-15.2,0.5-22.8,1.4l0.4,3.4c7.5-0.9,15-1.3,22.4-1.3
			c4.1,0,8.3,0.1,12.4,0.4c0.9,0.1,1.6,0.4,2.3,1.1c1,1,1.9,3.1,2.4,5.7c0.5,2.6,0.7,5.7,0.7,8.9c0,7.8-1.2,16.1-1.7,19.1
			L611.5,784.3z"/>
		<path class="st8" d="M609.7,782.3L609.7,782.3c-0.5,0-0.8-0.1-0.9-0.1c-0.2-0.1-0.3-0.1-0.4-0.3l-1.4,1l1.7-0.4l-0.1-0.4l-1.7,0.4
			l1.7,0.2c0.9-6.2,1.3-12.7,1.3-19.4c0-2.8-0.1-5.7-0.2-8.6c-0.1-1.1-0.3-2.1-0.6-3.1c-0.5-1.4-1.5-2.5-2.8-3.1
			c-1.2-0.7-2.6-0.9-4.1-0.9c-0.3,0-0.6,0-0.9,0c-3.1,0.2-6.4,0.3-9.9,0.3c-3.3,0-6.7-0.1-10.3-0.3c-4.6-0.2-8.5-0.6-11.6-1.1
			l-0.6,3.4c3.3,0.6,7.3,0.9,12,1.2c3.6,0.2,7.1,0.3,10.4,0.3c3.5,0,6.9-0.1,10.1-0.3c0.2,0,0.5,0,0.7,0c0.7,0,1.3,0.1,1.8,0.2
			c0.7,0.2,1.2,0.5,1.5,1.1c0.4,0.5,0.7,1.3,0.7,2.6c0.2,2.9,0.2,5.7,0.2,8.5c0,6.5-0.4,12.8-1.3,18.9v0.3l0.2,0.7l0.1,0.3l0.2,0.3
			c0.4,0.6,1.1,1.1,1.8,1.4c0.7,0.3,1.5,0.4,2.2,0.4h0.1L609.7,782.3z"/>
		<path class="st4" d="M374.8,746.2c-0.2,0-0.5,0-0.7,0c-1.3,0-2.4,0.2-3.4,0.7c-1.5,0.7-2.6,2-3.1,3.4c-0.6,1.4-0.8,3-0.9,4.7
			c-0.2,4.3-0.3,8.8-0.3,13.7c0,5.4,0.1,11.2,0.4,17.4c0,0.6,0.1,1.2,0.3,1.8c0.1,0.4,0.3,0.8,0.7,1.2c0.5,0.6,1.1,0.9,1.7,1.1
			c0.6,0.2,1.2,0.2,1.9,0.2c14.1,0.2,28.2,0.4,42.2,0.5l0,0l0,0l0,0c0.3,0,0.6,0,0.9-0.2c0.5-0.2,0.9-0.7,1-1.1
			c0.2-0.4,0.2-0.7,0.2-1v-0.2l-3.4,0.2l0,0h1l-0.8-0.6c-0.2,0.4-0.2,0.6-0.2,0.6h1l-0.8-0.6l1.1,0.8l-0.6-1.2
			c-0.2,0.1-0.4,0.3-0.5,0.4l1.1,0.8l-0.6-1.2l0.5,1.1v-1.3c-0.1,0-0.3,0-0.5,0.1l0.5,1.1v-1.3l0,0v1.7v-1.7
			c-14.1-0.2-28.2-0.4-42.2-0.5c-0.5,0-0.8,0-1-0.1h-0.1l0,0l-0.1,0.2l0.1-0.1l0,0l-0.1,0.2l0.1-0.1l0,0c0-0.1-0.1-0.4-0.1-1
			c-0.3-6.1-0.4-11.8-0.4-17.2c0-4.8,0.1-9.3,0.3-13.5c0.1-2,0.4-3.5,1-4.2c0.3-0.4,0.6-0.6,1-0.9c0.5-0.2,1.1-0.4,2-0.4
			c0.2,0,0.3,0,0.5,0L374.8,746.2z"/>
		<path class="st5" d="M415.6,788.9c2.6-7.7,4-15.6,4-23.6c0-3.4-0.2-6.7-0.7-10.1c-0.4-2.9-1.2-5.3-2.9-7.1c-0.9-0.9-1.9-1.6-3.2-2
			c-1.3-0.5-2.7-0.7-4.2-0.7c-3.2-0.1-6.4-0.1-9.4-0.1c-9,0-17.2,0.3-24.5,1l0.3,3.4c7.3-0.6,15.4-0.9,24.2-0.9c3,0,6.1,0,9.4,0.1
			c1.3,0,2.4,0.2,3.2,0.5c1.2,0.5,1.9,1.1,2.6,2.1c0.6,1,1.1,2.5,1.3,4.4c0.4,3.2,0.7,6.5,0.7,9.7c0,7.6-1.3,15.1-3.8,22.4
			L415.6,788.9z"/>
		<path class="st8" d="M414.8,786.9l-0.2-0.1l-0.8,1.5l1.6-0.6l-0.1-0.2l-1.6,0.6l1.7-0.2c-0.5-5.1-0.8-10.3-0.8-15.4
			c0-4.7,0.2-9.4,0.7-14.1c0.1-0.8,0.1-1.5,0.1-2.1c0-1.1-0.1-2-0.4-2.9l0,0c-0.4-1.2-1-2.5-2-3.7c-0.5-0.6-1.1-1.1-1.8-1.5
			c-0.7-0.4-1.6-0.7-2.5-0.7h-0.4c-4.1,0.3-8.2,0.5-12.3,0.5c-6.9,0-13.8-0.5-20.7-1.4l-0.2,1.7l0.8-1.5l-0.2-0.1l-0.8,1.5h1.7v-0.3
			L373,748v0.3v1l1.1,0.6l0.3,0.1h0.3c7.1,0.9,14.2,1.4,21.2,1.4c4.2,0,8.4-0.2,12.6-0.5h0.1c0.3,0,0.5,0.1,0.8,0.2
			c0.4,0.2,0.9,0.7,1.3,1.3s0.7,1.3,0.9,1.9l0,0c0.1,0.3,0.2,1,0.2,1.8c0,0.5,0,1.1-0.1,1.8c-0.4,4.8-0.7,9.6-0.7,14.4
			c0,5.3,0.3,10.5,0.8,15.8v0.2l0.2,0.5l0.2,0.6l0.8,0.4L414.8,786.9z"/>
		<path class="st4" d="M697.6,746.2c-0.2,0-0.4-0.1-0.6-0.1c-0.9,0-1.6,0.3-2.2,0.6c-1,0.5-1.8,1.3-2.5,2s-1.2,1.5-1.6,2.1l0,0l0,0
			c-0.6,1-0.8,2.2-0.8,3.5c-0.1,10.3-0.2,20.5-0.2,30.8v0.1c0,0.8,0.1,1.5,0.4,2.2c0.4,1,1.2,1.9,2.1,2.3c0.9,0.5,1.9,0.6,3,0.6
			c13.6,0.2,27.2,0.4,40.8,0.5l0,0l0,0c0.3,0,0.8-0.1,1.1-0.3c0.4-0.2,0.6-0.6,0.8-0.9l0.4-0.9l-3.1-1.4l-0.4,0.9l0,0l1.2,0.5
			l-0.7-1.1c-0.3,0.2-0.4,0.4-0.5,0.6l1.2,0.5l-0.7-1.1l0.7,1.1v-1.3c-0.2,0-0.5,0-0.7,0.2l0.7,1.1v-1.3v1.7v-1.7
			c-13.6-0.2-27.2-0.4-40.8-0.5c-0.5,0-0.9-0.1-1.2-0.1c-0.4-0.1-0.5-0.2-0.6-0.4c-0.1-0.1-0.2-0.5-0.2-1.2l0,0
			c0.1-10.3,0.2-20.5,0.2-30.8c0-0.9,0.2-1.5,0.4-1.9l0,0c0.3-0.5,0.9-1.4,1.6-2c0.4-0.3,0.7-0.6,1-0.8s0.5-0.2,0.6-0.2l0,0
			L697.6,746.2z"/>
		<path class="st5" d="M738.2,788.7c2.5-7.6,3.8-15.3,3.8-23.2c0-3.8-0.3-7.7-0.9-11.6c-0.4-2.5-1.4-4.6-3.1-6.1
			c-1.7-1.5-3.9-2.2-6.5-2.3c-3.9-0.2-7.8-0.3-11.6-0.3c-7.7,0-15.3,0.3-22.7,1l0.3,3.4c7.3-0.7,14.8-1,22.4-1
			c3.8,0,7.6,0.1,11.5,0.2c2,0.1,3.4,0.6,4.4,1.5c1,0.8,1.6,2.1,1.9,4c0.6,3.7,0.9,7.4,0.9,11.1c0,7.5-1.2,14.9-3.6,22.1
			L738.2,788.7z"/>
		<path class="st8" d="M736.3,786.5h-0.2l0.3,1.7l1.2-1.2l-0.2-0.2l-1.2,1.2h1.7c0.1-7.2,0.1-13.4,0.1-18.4c0-7.3-0.1-12.3-0.2-15.1
			c-0.1-1.5-0.4-2.9-1.1-4.1c-0.7-1.2-1.8-2-3.1-2.5l0,0l0,0c-1-0.3-2-0.4-3.4-0.4c-0.8,0-1.6,0-2.6,0.1c-3.1,0.2-6.3,0.3-9.4,0.3
			c-6.8,0-13.7-0.5-20.5-1.6l-0.5,3.4c7,1.1,14,1.6,21,1.6c3.2,0,6.5-0.1,9.7-0.3c0.9-0.1,1.7-0.1,2.4-0.1c1.2,0,2,0.1,2.2,0.2l0,0
			c0.7,0.3,1.1,0.6,1.4,1.1c0.3,0.5,0.6,1.3,0.6,2.4c0.1,2.7,0.2,7.7,0.2,15c0,5,0,11.2-0.1,18.4v0.7l0.7,0.7l0.6,0.6l1-0.2
			L736.3,786.5z"/>
		<path class="st4" d="M227.2,746.5c-0.5,0-1-0.1-1.6-0.2c-0.2,0-0.4,0-0.6,0c-1.2,0-2.3,0.6-3,1.3c-1.1,1.1-1.6,2.6-1.9,3.9
			c-0.3,1.3-0.4,2.6-0.4,3.6c-0.3,9.7-0.5,18.2-0.5,25.4c0,1.7,0,3.3,0,4.9c0,0.7,0.1,1.4,0.3,2c0.3,1,1,1.8,1.9,2.3
			s1.9,0.6,2.9,0.6c15,0.1,30.1,0.2,45.1,0.2c5,0,10,0,15,0l0,0c1.1,0,2-0.6,2.5-1.5l0,0c1.1-2.2,1.7-4.7,1.7-7.3c0-0.4,0-0.8,0-1.3
			l-3.4,0.2c0,0.4,0,0.7,0,1c0,2.1-0.4,4-1.3,5.7l0,0l0.5,0.3V787c-0.2,0-0.4,0.1-0.5,0.3l0.5,0.3V787l0,0l0,0c-5,0-10,0-15,0
			c-15,0-30-0.1-45.1-0.2c-0.5,0-0.9-0.1-1.1-0.1c-0.4-0.1-0.4-0.2-0.5-0.3s-0.2-0.5-0.2-1.2c0-1.6,0-3.2,0-4.9
			c0-7.2,0.2-15.6,0.5-25.3c0-1,0.2-2.7,0.6-3.9c0.2-0.6,0.5-1.1,0.7-1.3s0.3-0.3,0.6-0.3h0.2c0.7,0.1,1.3,0.2,1.9,0.2L227.2,746.5z
			"/>
		<path class="st5" d="M288.6,780.6c0.3-4.7,0.5-9.2,0.5-13.4c0-4.9-0.2-9.4-0.6-13.6c-0.3-2.7-1.7-4.8-3.5-6.1
			c-1.9-1.3-4.2-2-6.5-2c-4.8-0.1-10.4-0.1-16.3-0.1c-11.3,0-23.8,0.2-35,1.2l0.3,3.4c11-1,23.5-1.2,34.7-1.2
			c5.9,0,11.5,0.1,16.3,0.1c1.7,0,3.4,0.5,4.6,1.4s2,2,2.1,3.7c0.4,4.1,0.6,8.5,0.6,13.3c0,4.1-0.2,8.5-0.5,13.1L288.6,780.6z"/>
		<path class="st8" d="M286.9,778.8c-0.6,0-1.1,0.1-1.4,0.1h-0.2l-0.1,0.4l0.2-0.4h-0.1l-0.1,0.4l0.2-0.4l-0.4,0.6l0.7-0.3l-0.3-0.3
			l-0.4,0.6l0.7-0.3l-0.3,0.1l0.3-0.1v-0.1l-0.3,0.1l0.3-0.1V779v-0.1c0.2-4.5,0.5-12.4,0.7-23.6v-0.2c0-1.4-0.3-2.6-1-3.7
			c-0.9-1.5-2.4-2.4-4-2.9c-1.5-0.5-3.1-0.6-4.6-0.6c-0.5,0-1,0-1.4,0c-5.2,0.3-10.4,0.5-15.6,0.5c-10.9,0-21.7-0.7-32.6-2l-0.4,3.4
			c11,1.3,22,2,33,2c5.3,0,10.5-0.2,15.8-0.5c0.4,0,0.8,0,1.2,0c1.7,0,3.4,0.3,4.4,0.8c0.5,0.3,0.9,0.6,1.2,1.1
			c0.3,0.4,0.5,1,0.5,1.9v0.1c-0.2,11.2-0.5,19.1-0.7,23.5v0.3c0,0.5,0.1,0.9,0.2,1.4c0.3,0.7,0.9,1.3,1.5,1.5s1.1,0.3,1.5,0.3
			c0.6,0,1.1-0.1,1.4-0.1L286.9,778.8z"/>
		<path class="st4" d="M310.9,746c-0.6-0.2-1.2-0.2-1.8-0.2c-0.9,0-1.9,0.2-2.6,0.6c-1.4,0.7-2.4,2-3.1,3.4
			c-1.1,2.2-1.8,4.8-2.2,7.8c-0.4,3-0.5,6.3-0.5,9.5c0,8.1,0.9,16,1.2,18.3c0.1,0.7,0.2,1.3,0.5,2c0.4,0.9,1.1,1.7,2,2.2
			s1.9,0.7,2.9,0.7c12,0.2,23.9,0.3,35.9,0.5v-3.4c-12-0.2-23.9-0.3-35.9-0.5c-0.5,0-0.8-0.1-1-0.1c-0.3-0.1-0.5-0.2-0.6-0.4
			s-0.3-0.6-0.4-1.3c-0.3-2.1-1.2-10-1.2-17.8c0-4.8,0.3-9.6,1.3-13.1c0.5-1.7,1.1-3.1,1.8-3.9c0.3-0.4,0.7-0.7,1-0.8
			c0.3-0.2,0.6-0.3,1.1-0.3c0.3,0,0.6,0,0.9,0.1L310.9,746z"/>
		<path class="st5" d="M343.3,790.8c1.6-0.2,3.3-0.5,4.9-0.8c0.8-0.1,1.5-0.6,2-1.2c0.8-1,1.3-2.1,1.7-3.5c0.6-2.1,0.9-4.7,1.1-7.5
			s0.3-5.9,0.3-8.8c0-5.8-0.3-11.1-0.3-12.7c-0.1-1.9-0.3-3.6-0.7-5c-0.3-1.1-0.8-2-1.4-2.8c-1-1.2-2.4-2-3.9-2.4
			c-1.6-0.4-3.3-0.5-5.5-0.5h-0.4c-10.1,0.1-20.3,0.2-30.6,0.5l0.1,3.4c10.3-0.3,20.4-0.4,30.5-0.5h0.3c1.8,0,3.2,0.1,4.2,0.3
			c0.8,0.2,1.4,0.4,1.8,0.7c0.6,0.4,1,0.9,1.4,1.9s0.6,2.5,0.7,4.5c0.1,1.7,0.3,6.9,0.3,12.6c0,4.4-0.2,9-0.7,12.5
			c-0.2,1.8-0.6,3.2-1,4.2c-0.2,0.5-0.4,0.8-0.5,0.9l-0.1,0.1l0.1,0.2v-0.2h-0.1l0.1,0.2v-0.2c-1.6,0.3-3.2,0.5-4.8,0.8L343.3,790.8
			z"/>
		<path class="st8" d="M344.5,789.9c0.7-1.2,1.5-2,2.6-2.7c0.4-0.3,0.8-0.7,1.1-1.1c0.3-0.4,0.4-0.9,0.4-1.4l0,0l0,0
			c0.8-7.2,1.5-14.3,1.5-21.5c0-2.9-0.1-5.7-0.3-8.6c-0.1-1.2-0.3-2.3-0.7-3.2c-0.6-1.4-1.6-2.5-2.8-3.1c-1.2-0.6-2.6-0.8-4-0.8
			c-0.8,0-1.6,0.1-2.5,0.1c-3,0.3-5.9,0.4-8.9,0.4c-6.7,0-13.3-0.7-20-2.2l-0.7,3.3c6.9,1.5,13.8,2.3,20.7,2.3
			c3.1,0,6.1-0.1,9.2-0.4c0.8-0.1,1.5-0.1,2.1-0.1c0.8,0,1.4,0.1,1.9,0.2c0.7,0.2,1.1,0.5,1.5,0.9c0.4,0.5,0.7,1.4,0.8,2.8
			c0.2,2.8,0.3,5.5,0.3,8.3c0,6.9-0.6,13.9-1.4,21.1l0,0v0.1l0,0l0.2,0.1l-0.1-0.2l-0.1,0.1l0.2,0.1l-0.1-0.2
			c-1.5,1-2.8,2.3-3.7,3.9L344.5,789.9z"/>
		<path class="st4" d="M633,746.2c-1.3,0.1-2.5,0.6-3.6,1.3s-2,1.7-2.7,2.9c-0.6,1-1,2.2-1.1,3.4c-0.5,5.1-0.8,10.2-0.8,15.3
			c0,5.5,0.3,10.9,0.9,16.4c0.1,1.4,0.8,2.7,1.8,3.5c1.1,0.8,2.3,1.1,3.7,1.1c13.5,0.3,27,0.5,40.6,0.8l0,0h0.1
			c0.5,0,1.1-0.2,1.5-0.6l0,0c0.2-0.2,0.3-0.3,0.5-0.6s0.3-0.6,0.3-1.1s-0.2-0.9-0.4-1.2l-2.7,2.1l1.1-0.9h-1.4
			c0,0.3,0.1,0.7,0.3,0.9l1.1-0.9h-1.4h1.3l-1.1-0.7c-0.1,0.1-0.2,0.4-0.2,0.7h1.3l-1.1-0.7l0.7,0.4l-0.5-0.6l-0.1,0.2l0.7,0.4
			l-0.5-0.6l0,0l0.7,0.8v-1.1c-0.2,0-0.6,0.1-0.7,0.3l0.7,0.8v-1.1v1.1v-1.1l0,0v1.1v-1.1l0,0c-13.5-0.2-27-0.5-40.6-0.8
			c-0.9,0-1.4-0.2-1.6-0.4c-0.2-0.2-0.5-0.5-0.6-1.2c-0.6-5.3-0.9-10.7-0.9-16c0-5,0.3-10,0.8-14.9c0.1-0.9,0.3-1.5,0.6-2
			c0.6-0.9,1.1-1.5,1.8-1.9c0.6-0.4,1.3-0.6,2.1-0.7L633,746.2z"/>
		<path class="st5" d="M674,789c2.3-7.7,3.5-15.5,3.5-23.3c0-4.1-0.3-8.2-1-12.3c-0.2-1.5-0.6-2.8-1.3-3.9c-0.5-0.8-1.1-1.5-1.8-2.1
			c-1-0.8-2.3-1.3-3.5-1.5c-1.3-0.2-2.6-0.3-4.1-0.3c-3.8,0-7.5-0.1-11.1-0.1c-7.5,0-14.6,0.2-21.7,0.8l0.3,3.4
			c6.9-0.6,14-0.8,21.4-0.8c3.6,0,7.3,0,11.1,0.1c1.2,0,2.3,0.1,3.2,0.2c0.7,0.1,1.2,0.3,1.6,0.4c0.7,0.3,1.1,0.6,1.5,1.3
			c0.4,0.6,0.8,1.6,1,3c0.6,4,0.9,7.9,0.9,11.8c0,7.5-1.1,14.9-3.3,22.4L674,789z"/>
		<path class="st8" d="M674.1,788.5c0.1-9.3,0.1-17,0.1-23.2c0-4,0-7.3,0-10c0-1.4-0.3-2.7-1-3.8c-0.9-1.6-2.4-2.7-3.9-3.3
			c-1.6-0.6-3.3-0.9-4.9-0.9c-0.6,0-1.3,0-1.9,0.1c-3.8,0.4-7.4,0.6-11,0.6c-5.8,0-11.5-0.6-17.9-1.8l-0.7,3.3
			c6.5,1.3,12.5,1.9,18.5,1.9c3.8,0,7.5-0.2,11.4-0.7c0.5-0.1,1-0.1,1.5-0.1c1.8,0,3.5,0.4,4.6,1.1c0.6,0.4,1,0.8,1.3,1.4
			c0.3,0.6,0.5,1.2,0.5,2.2c0,2.7,0,6,0,10c0,6.2,0,13.9-0.1,23.1L674.1,788.5z"/>
		<path class="st5" d="M481.1,850.8c1.5-4.3,2.4-8.5,2.6-12.8c0.2-3.4,0.3-6.8,0.3-10.3c0-4.4-0.2-8.9-0.5-13.5
			c-0.1-1.4-0.2-2.5-0.4-3.6c-0.2-1-0.5-1.9-0.9-2.6c-1.1-2-2.8-3.4-4.7-4.2c-1.9-0.8-3.9-1.1-5.9-1.1c-0.6,0-1.3,0-1.9,0.1l0.3,3.4
			c0.5-0.1,1-0.1,1.6-0.1c1.6,0,3.2,0.3,4.5,0.8c1.3,0.6,2.3,1.4,3,2.6c0.2,0.3,0.4,0.9,0.5,1.7c0.2,0.8,0.3,1.9,0.4,3.1
			c0.3,4.5,0.5,9,0.5,13.3c0,3.4-0.1,6.8-0.3,10.1c-0.2,3.9-1,7.9-2.4,11.9L481.1,850.8z"/>
		<path class="st4" d="M470.2,802.8c-2.9-0.4-9.8-1.2-16.9-1.2c-4.5,0-9.1,0.3-12.9,1.3c-1.9,0.5-3.6,1.2-5,2.1
			c-1.4,1-2.5,2.3-2.9,4l0,0l0,0v0.3c-0.1,0.5-0.2,1.7-0.3,3.7c-0.6,7.9-0.9,15.7-0.9,23.6c0,3.1,0,6.1,0.1,9.2
			c0,1.2,0.2,2.3,0.6,3.3c0.3,0.7,0.7,1.4,1.3,1.9c0.8,0.8,1.8,1.3,2.9,1.5c1.1,0.3,2.2,0.4,3.4,0.4h0.4c13-0.2,26-0.3,39-0.5h0.5
			l0.7-0.5l0.4-0.2l0.3-0.6l-3-1.6l-0.1,0.2l1.5,0.8l-0.9-1.4l-0.3,0.2l0.9,1.5v-1.7c-13,0.1-26,0.3-39,0.5h-0.3
			c-0.9,0-1.7-0.1-2.3-0.2c-0.9-0.2-1.4-0.5-1.7-0.9c-0.3-0.4-0.6-1.2-0.7-2.6c-0.1-3-0.1-6-0.1-9.1c0-7.8,0.3-15.6,0.9-23.3
			c0.1-1.2,0.2-2.1,0.2-2.7c0-0.3,0-0.6,0.1-0.7v-0.2l0,0l-1.1-0.2l1.1,0.2v-0.1l-1.1-0.2l1.1,0.2l-1.7-0.4l1.7,0.4
			c0.2-0.7,0.6-1.4,1.5-2c1.4-1,3.7-1.7,6.5-2.2s6.1-0.6,9.4-0.6c6.8,0,13.6,0.8,16.3,1.2L470.2,802.8z"/>
		<path class="st8" d="M469.3,806c2.3,0.9,4.1,1.8,5.3,2.6c1.2,0.7,1.7,1.4,2.1,2.1c0.3,0.7,0.5,1.7,0.5,3c0,1-0.1,2.1-0.1,3.4
			c-0.2,4.5-0.4,8.9-0.4,13.4c0,6.5,0.3,13.1,0.8,19.6l0,0l0,0c0,0.3,0.2,0.7,0.3,0.9c0.3,0.4,0.5,0.5,0.8,0.6
			c0.2,0.1,0.4,0.2,0.6,0.2l0.8-3.3l-0.2,0.9l0.5-0.8c-0.2-0.1-0.3-0.1-0.3-0.1l-0.2,0.9l0.5-0.8l-0.8,1.2l1.2-0.8
			c-0.1-0.2-0.3-0.3-0.4-0.4l-0.8,1.2l1.2-0.8l-1.3,0.9l1.6-0.1c0-0.3-0.1-0.6-0.3-0.8l-1.3,0.9l1.6-0.1l-1.7,0.2l1.7-0.1
			c-0.5-6.5-0.7-12.9-0.7-19.4c0-4.4,0.1-8.8,0.3-13.2c0.1-1.3,0.1-2.4,0.2-3.6c0-1.5-0.1-3-0.8-4.4c-0.6-1.4-1.8-2.6-3.4-3.6
			c-1.5-0.9-3.4-1.8-5.8-2.8L469.3,806z"/>
		<path class="st4" d="M377.4,802.7l-6.9,1.4l-0.6,0.4l-0.2,0.2l-0.2,0.2c-0.6,0.7-1,1.6-1.3,2.5c-1.6,6.2-2,12.5-2,18.8
			c0,7.4,0.6,14.7,0.7,21.8c0,0.9,0.2,1.8,0.5,2.6c0.3,0.6,0.7,1.1,1.2,1.4c0.7,0.6,1.5,0.8,2.3,1c0.8,0.1,1.6,0.2,2.4,0.2h0.2
			c9.5-0.1,22.8-0.1,40-0.1l0,0c0.4,0,0.8-0.1,1.3-0.2c0.4-0.2,0.9-0.5,1.2-1l-3-1.9l0.8,0.5l-0.3-0.8c-0.1,0-0.3,0.2-0.4,0.4
			l0.8,0.5l-0.3-0.8l0.1,0.3v-0.3h-0.1l0.1,0.3v-0.3h-0.1l0,0c-17.2,0-30.5,0.1-40,0.1h-0.2c-0.6,0-1.2,0-1.6-0.1
			c-0.3,0-0.6-0.1-0.7-0.2c-0.2-0.1-0.3-0.2-0.4-0.3c-0.1-0.2-0.2-0.5-0.2-1.2c-0.1-7.3-0.7-14.6-0.7-21.8c0-6.1,0.4-12.2,1.9-18
			c0.1-0.4,0.3-0.8,0.6-1.2L371,806l0.9,1.5l0.1-0.1l6.3-1.3L377.4,802.7z"/>
		<path class="st5" d="M415.9,851.8c1-1.7,1.6-3,1.9-4.3l0,0c1.1-5.4,1.4-10.8,1.4-16.2c0-6.5-0.5-12.9-1-19.3
			c-0.1-1.5-0.4-2.7-1-3.8c-0.8-1.7-2.2-2.9-3.7-3.6c-1.6-0.7-3.3-1.1-5.2-1.3c-5.8-0.7-11.7-1.1-17.6-1.1c-4.4,0-8.8,0.2-13.2,0.6
			l0.3,3.4c4.3-0.4,8.6-0.6,12.9-0.6c5.7,0,11.4,0.3,17.2,1c2.3,0.3,4,0.8,5,1.5c0.5,0.4,0.9,0.8,1.2,1.5c0.3,0.6,0.5,1.5,0.6,2.6
			c0.5,6.4,1,12.8,1,19.1c0,5.3-0.4,10.5-1.4,15.6l0,0c-0.1,0.5-0.6,1.7-1.5,3.2L415.9,851.8z"/>
		<path class="st8" d="M415.1,849.3L415.1,849.3l-0.4,0.8l0.6-0.6C415.1,849.4,415.1,849.3,415.1,849.3l-0.4,0.8l0.6-0.6l-1,1
			l1.3-0.7c-0.1-0.2-0.2-0.3-0.3-0.4l-1,1l1.3-0.7l-1.4,0.7h1.6c0-0.3-0.1-0.5-0.2-0.7l-1.4,0.7h1.6h-1.6l1.4,0.8
			c0.1-0.2,0.2-0.5,0.2-0.8h-1.6l1.4,0.8l-1.2-0.7l0.9,1.1c0.1-0.1,0.2-0.2,0.3-0.4l-1.2-0.7l0.9,1.1l0.6-0.5v-0.7
			c0.3-12.3,0.5-24.6,0.8-36.9v-0.3c0-1.6-0.3-3-0.9-4.3c-0.7-1.3-1.7-2.3-2.9-3l0,0c-0.8-0.4-1.7-0.7-2.7-0.9
			c-1.1-0.2-2.3-0.3-3.7-0.4c-3.5-0.2-6.9-0.3-10.4-0.3c-5.2,0-10.4,0.2-15.6,0.6c-0.2,0-0.3,0-0.5,0c-0.3,0-0.4,0-0.5,0l0,0
			l-0.1,0.2l0.2-0.1l-0.1-0.1l-0.1,0.2l0.2-0.1v-0.1c0-0.1,0-0.2,0-0.4v-0.2l-3.4-0.2v0.4c0,0.5,0.1,1,0.2,1.5
			c0.2,0.8,0.8,1.5,1.5,1.9s1.4,0.5,2.1,0.5c0.2,0,0.5,0,0.7,0c5.1-0.4,10.2-0.6,15.4-0.6c3.4,0,6.8,0.1,10.2,0.3
			c1.3,0.1,2.4,0.2,3.2,0.4c0.8,0.2,1.4,0.4,1.7,0.5l0,0c0.8,0.4,1.2,0.9,1.6,1.6c0.3,0.7,0.6,1.5,0.6,2.7v0.2
			c-0.3,12.3-0.6,24.6-0.8,36.9h1.7l-1.1-1.3c-0.1,0.1-0.3,0.3-0.4,0.5s-0.2,0.6-0.2,0.9c0,0.4,0.1,0.7,0.3,1
			c0.2,0.4,0.5,0.5,0.6,0.7c0.2,0.1,0.4,0.2,0.5,0.3L415.1,849.3z"/>
		<path class="st4" d="M761.9,803.5c-1.1,0.1-2.2,0.5-3.1,1.1c-0.9,0.6-1.6,1.5-2.2,2.5c-0.7,1.3-1,2.8-1.2,4.9
			c-0.6,6.9-1,13.8-1,20.7c0,4.5,0.1,9,0.4,13.5c0.1,1.6,0.3,3.2,1.1,4.6c0.4,0.7,1,1.4,1.8,1.9s1.8,0.7,2.8,0.7
			c4.1,0.1,8.6,0.2,13.4,0.2c7.7,0,16.4-0.1,25.9-0.4c0.4,0,0.7,0,1.1-0.1c0.4-0.1,0.8-0.2,1.2-0.6l-2.4-2.5l0.8,0.8l-0.5-1
			l-0.3,0.2l0.8,0.8l-0.5-1l0.2,0.4l-0.1-0.4H800l0.2,0.4l-0.1-0.4c0,0-0.2,0-0.5,0c-9.6,0.3-18.2,0.4-25.8,0.4
			c-4.8,0-9.3-0.1-13.3-0.2c-0.6,0-1-0.1-1.2-0.3c-0.2-0.1-0.3-0.2-0.4-0.4c-0.2-0.3-0.4-0.7-0.5-1.3s-0.2-1.3-0.3-2.1
			c-0.3-4.5-0.4-8.9-0.4-13.3c0-6.8,0.3-13.6,0.9-20.4c0.2-1.9,0.5-3.1,0.8-3.6c0.3-0.6,0.7-1,1.1-1.2c0.4-0.3,0.9-0.4,1.5-0.5
			L761.9,803.5z"/>
		<path class="st5" d="M802.5,852.2c1.4-1.8,2.2-4.1,2.8-6.5c0.5-2.3,0.8-4.7,0.9-6.6c0.2-3.5,0.3-7.1,0.3-10.6
			c0-5.7-0.3-11.4-0.8-17.1c-0.1-1.6-0.4-3.2-1.3-4.6c-0.4-0.7-1-1.4-1.7-1.9s-1.6-0.9-2.6-1.1c-6.3-1.2-12.9-1.7-19.7-1.7
			c-6,0-12.2,0.5-18.6,1.4l0.5,3.4c6.2-0.9,12.3-1.3,18.1-1.3c6.6,0,12.9,0.6,19.1,1.7c0.5,0.1,0.9,0.3,1.2,0.5
			c0.4,0.3,0.8,0.8,1,1.5c0.3,0.7,0.4,1.6,0.5,2.6c0.5,5.6,0.8,11.2,0.8,16.8c0,3.5-0.1,6.9-0.3,10.4c-0.1,1.8-0.3,4-0.8,6.1
			s-1.2,3.9-2.1,5.1L802.5,852.2z"/>
		<path class="st8" d="M802.5,850.1L802.5,850.1l-0.3,0.1L802.5,850.1L802.5,850.1l-0.3,0.1L802.5,850.1l-0.9,0.4h0.9V850.1
			l-0.9,0.4h0.9h-0.9h0.9l0,0h-0.9h0.9l0,0l0,0c0.5-12.8,1-25.7,1.6-38.5c0-0.2,0-0.4,0-0.5c0-0.8-0.1-1.5-0.3-2.2
			c-0.3-1-1-2-1.9-2.6s-2-0.9-3.2-1.1c-4-0.7-8-1-12-1c-2,0-4.1,0.1-6.1,0.3c-3.6,0.3-5.9,0.4-7,0.4h-0.2c-3.7-0.1-7.3-0.7-11-1.7
			l-0.9,3.3c3.9,1.1,7.9,1.7,11.8,1.8h0.3c1.3,0,3.6-0.2,7.2-0.5c1.9-0.2,3.9-0.2,5.8-0.2c3.8,0,7.6,0.3,11.5,0.9
			c0.6,0.1,1.1,0.2,1.4,0.4c0.5,0.2,0.7,0.4,0.8,0.7s0.3,0.8,0.3,1.6v0.4c-0.5,12.8-1.1,25.7-1.6,38.5l1.7,0.1l-1.7-0.1v0.1
			c0,0.4,0.1,0.8,0.3,1.1c0.1,0.3,0.3,0.5,0.4,0.6L802.5,850.1z"/>
		<path class="st4" d="M503.9,803.9c-0.2,0-0.4,0-0.7,0c-0.4,0-0.9,0-1.4,0.1c-0.9,0.1-1.7,0.5-2.3,1c-0.9,0.8-1.4,1.8-1.7,2.7
			c-0.3,1-0.4,1.9-0.5,2.7c-0.7,8.7-1,16.8-1,24.3c0,4,0.1,7.8,0.3,11.4c0.1,1.9,0.7,3.6,1.9,4.8c0.6,0.6,1.3,1.1,2.1,1.4
			c0.8,0.3,1.7,0.4,2.6,0.5c3.2,0.1,8.7,0.2,16.6,0.2c5.6,0,12.5,0,20.6-0.1c0.5,0,0.9-0.1,1.4-0.2c0.5-0.1,1.1-0.3,1.9-0.6
			l-1.1-3.2c-0.7,0.2-1.3,0.4-1.7,0.5c-0.2,0.1-0.4,0.1-0.5,0.1h-0.1l0,0v0.4v-0.4l0,0v0.4v-0.4c-8.1,0.1-14.9,0.1-20.6,0.1
			c-7.9,0-13.4-0.1-16.5-0.2c-0.6,0-1.2-0.1-1.6-0.3c-0.6-0.2-0.9-0.5-1.2-1c-0.3-0.5-0.5-1.2-0.6-2.2c-0.2-3.6-0.3-7.3-0.3-11.2
			c0-7.4,0.3-15.4,1-24.1c0.1-0.9,0.3-1.9,0.6-2.5c0.1-0.3,0.3-0.5,0.5-0.6s0.3-0.2,0.5-0.2c0.4-0.1,0.7-0.1,0.9-0.1h0.3
			L503.9,803.9z"/>
		<path class="st5" d="M544.2,851.9c1.4-1,2.4-2.5,2.6-4.4c0.4-3,1.5-13.7,1.5-23.7c0-4.7-0.3-9.2-1-12.7c-0.4-1.8-0.9-3.3-1.6-4.6
			c-0.4-0.6-0.8-1.2-1.4-1.7c-0.6-0.5-1.3-0.8-2-1c-6-1.1-12.1-1.6-18.5-1.6c-6.6,0-13.4,0.6-20.4,1.7l0.6,3.4
			c6.8-1.1,13.4-1.7,19.8-1.7c6.1,0,12.1,0.5,17.9,1.5c0.1,0,0.3,0.1,0.5,0.2c0.3,0.3,0.8,0.9,1.2,1.9c0.6,1.5,1,3.6,1.3,6.2
			c0.3,2.5,0.4,5.4,0.4,8.4c0,9.7-1.2,20.3-1.5,23.2c-0.1,0.9-0.5,1.5-1.2,2L544.2,851.9z"/>
		<path class="st8" d="M543.9,848.9c-0.9-0.4-1.7-0.7-2.1-1c-0.2-0.1-0.2-0.2-0.3-0.3c0-0.1-0.1-0.2-0.1-0.4s0-0.4,0.1-0.6
			c2-8.9,3.3-18.2,3.8-27.8c0-0.3,0-0.7,0-1.2c0-1.6-0.1-4.3-0.6-6.7c-0.2-1.2-0.5-2.3-1-3.4c-0.2-0.5-0.5-1-1-1.4
			c-0.4-0.4-1-0.8-1.7-0.9c-1.6-0.2-3.1-0.3-4.7-0.3c-4.6,0-8.9,0.7-13.1,0.7c-0.4,0-0.9,0-1.3,0c-6-0.2-12-0.8-18-1.7l-0.5,3.4
			c6.2,1,12.3,1.5,18.4,1.8c0.5,0,0.9,0,1.4,0c4.6,0,8.9-0.7,13.1-0.7c1.4,0,2.8,0.1,4.2,0.3l0.1-0.4l-0.2,0.4h0.1l0.1-0.4l-0.2,0.4
			l0.1-0.1l-0.1,0.1l0,0l0.1-0.1l-0.1,0.1c0,0,0.1,0.1,0.2,0.2c0.2,0.3,0.4,0.9,0.6,1.6c0.6,2.2,0.7,5.4,0.7,7.2c0,0.4,0,0.8,0,1
			c-0.5,9.5-1.8,18.5-3.7,27.3c-0.1,0.5-0.2,0.9-0.2,1.4c0,0.7,0.2,1.5,0.5,2.1c0.5,0.9,1.3,1.5,2,1.9s1.4,0.6,2.1,0.9L543.9,848.9z
			"/>
		<path class="st4" d="M704.7,803.5c-0.4-0.1-0.9-0.1-1.4-0.1h-0.1l0,0l0,0c-0.2,0-0.4,0-0.6-0.1l0,0c-1.2-0.3-2.4-0.5-3.5-0.5
			s-2.1,0.2-3.1,0.5c-1.4,0.5-2.7,1.5-3.5,2.9s-1.3,3-1.4,5c-0.6,8.7-0.9,17.1-0.9,25.4c0,3.6,0.1,7.2,0.2,10.8
			c0,0.8,0.1,1.6,0.4,2.3c0.4,1.1,1.1,2,2,2.6c1,0.6,2.1,0.8,3.3,0.8h0.1c13.4-0.2,26.7-0.3,40.1-0.5v-3.4
			c-13.3,0.2-26.7,0.4-40.1,0.5h-0.1c-0.5,0-0.9-0.1-1.1-0.2c-0.4-0.1-0.6-0.3-0.8-0.6s-0.3-0.8-0.4-1.6c-0.1-3.5-0.2-7.1-0.2-10.6
			c0-8.2,0.3-16.6,0.9-25.2c0.2-2.1,0.7-3.4,1.4-4.1c0.4-0.4,0.8-0.6,1.3-0.8s1.2-0.3,1.9-0.3c0.8,0,1.7,0.1,2.7,0.4l0,0l0,0
			c0.5,0.1,0.9,0.2,1.4,0.2h0.1l0,0h0.1c0.3,0,0.5,0,0.6,0L704.7,803.5z"/>
		<path class="st5" d="M736.5,852.5c0.9-0.2,1.8-0.7,2.5-1.4s1-1.7,1.1-2.6c1.1-7.3,1.6-14.6,1.6-22.1c0-5.6-0.3-11.3-0.9-17l0,0
			c-0.1-0.7-0.2-1.4-0.6-2.1c-0.3-0.7-0.8-1.4-1.7-1.9c-4.7-2.6-9.8-3-15.3-3.2c-1.1,0-2.1-0.1-3.2-0.1c-5.3,0-10.7,0.4-16,1.3
			l0.5,3.4c5.2-0.8,10.4-1.2,15.5-1.2c1,0,2.1,0,3.1,0c5.4,0.2,9.9,0.6,13.7,2.8c0,0,0.1,0.1,0.2,0.3c0.1,0.2,0.2,0.6,0.3,1l0,0
			c0.6,5.6,0.9,11.1,0.9,16.6c0,7.3-0.5,14.5-1.5,21.6c-0.1,0.5-0.2,0.7-0.3,0.9c-0.1,0.1-0.3,0.3-0.7,0.3L736.5,852.5z"/>
		<path class="st8" d="M737.8,851c0.5-7.5,0.7-14.9,0.7-22.3c0-3.1,0-6.1-0.1-9.2l0,0v-0.2c0-0.6,0.1-1.9,0.2-3.6l0,0
			c0-0.5,0-1,0-1.6c0-1.4-0.1-2.8-0.3-4.4l0,0c-0.1-0.5-0.2-0.9-0.3-1.4c-0.2-0.7-0.7-1.4-1.4-1.9s-1.5-0.6-2.3-0.7
			c-9.9-0.7-19.8-1.5-29.8-2.3l-0.3,3.4c10,0.9,20,1.6,29.9,2.3c0.4,0,0.6,0.1,0.7,0.1h0.1l0,0l0,0l0,0l0,0l0,0l0.1-0.1l-0.1,0.1
			l0,0l0.1-0.1l-0.1,0.1c0,0,0,0.1,0.1,0.2c0,0.2,0.1,0.4,0.1,0.7l0,0c0.2,1.4,0.3,2.7,0.3,3.9c0,0.5,0,0.9,0,1.3l0,0
			c-0.1,1.8-0.2,3.1-0.2,3.9v0.3l0,0c0.1,3,0.1,6,0.1,9.1c0,7.3-0.2,14.7-0.7,22.1L737.8,851z"/>
		<path class="st4" d="M226,804.5c-0.5-0.2-1-0.4-1.5-0.4c-0.9,0-1.7,0.4-2.3,0.9c-0.9,0.7-1.5,1.6-1.9,2.5s-0.7,1.8-0.8,2.7
			c-0.5,6.5-0.8,13.1-0.8,19.6s0.3,13.1,0.8,19.6c0.1,0.8,0.4,1.7,1.1,2.4c0.7,0.6,1.6,0.9,2.4,0.9c12.7,0.5,24.3,0.8,34.7,0.9
			c3.9,0.1,7.4,0.1,10.4,0.1c5.9,0,10.1-0.1,12.9-0.3c2-0.1,3.8-0.7,5.1-1.9c1.3-1.2,2.1-2.9,2.3-4.8c0.6-5.2,0.9-10.5,0.9-15.9
			c0-8.2-0.7-16.5-2.2-24.5l0,0l0,0c-0.1-0.3-0.2-0.7-0.5-1s-0.6-0.5-0.9-0.6l0,0c-0.7-0.2-1.4-0.4-2.1-0.4c-0.2,0-0.4,0-0.6,0
			l0.3,3.4h0.2c0.3,0,0.6,0,0.9,0.2l0,0l0.4-1.2l-1,0.8c0.2,0.2,0.4,0.3,0.5,0.4l0.4-1.2l-1,0.8l1-0.8l-1.3,0.3
			c0,0.2,0.1,0.4,0.3,0.6l1-0.8l-1.3,0.3l0,0c1.5,7.7,2.2,15.8,2.2,23.8c0,5.2-0.3,10.5-0.9,15.5c-0.2,1.4-0.6,2.2-1.2,2.7
			c-0.6,0.6-1.5,1-3,1.1c-2.6,0.2-6.8,0.3-12.7,0.3c-3,0-6.5,0-10.4-0.1c-10.4-0.1-22-0.4-34.6-0.9h-0.3l0,0l-0.1,0.2l0.2-0.1
			l-0.1-0.1l-0.1,0.2l0.2-0.1h-0.1h0.1l0,0h-0.1h0.1v-0.2c-0.5-6.4-0.8-12.9-0.8-19.3c0-6.4,0.2-12.9,0.7-19.3
			c0-0.2,0.1-0.5,0.2-0.9c0.2-0.6,0.5-1.2,0.8-1.6c0.2-0.2,0.3-0.3,0.4-0.4h0.1l0,0l0,0l0,0l0,0l0,0l0,0l0,0h0.1L226,804.5z"/>
		<path class="st5" d="M283.4,804.3c-9.7-1.1-19.6-1.7-29.6-1.7c-7.2,0-14.4,0.3-21.6,0.9c-2.9,0.2-5.3,0.5-7.3,1l0.7,3.3
			c1.8-0.4,4.1-0.7,6.9-0.9c7.2-0.6,14.3-0.9,21.4-0.9c9.8,0,19.6,0.6,29.2,1.7L283.4,804.3z"/>
		<path class="st8" d="M282.2,804.6L282.2,804.6l-0.2,0.1l0.6,1.6l-0.1-1.7c-6.1,0.2-11.9,0.3-17.6,0.3c-6,0-11.8-0.1-17.7-0.2
			c-0.6,0-1.2,0-1.7,0c-3.8,0-7.5,0.2-11.2,0.2c-2.9,0-5.8-0.1-8.8-0.5l-0.4,3.4c3.2,0.4,6.2,0.5,9.2,0.5c3.8,0,7.5-0.2,11.2-0.2
			c0.6,0,1.1,0,1.7,0c5.9,0.1,11.7,0.2,17.7,0.2c5.8,0,11.6-0.1,17.8-0.3h0.3l0.7-0.2l0.3-0.1l0.4-0.4L282.2,804.6z"/>
		<path class="st4" d="M567.3,804.3c-0.9,0.1-1.8,0.4-2.5,0.9c-1.3,0.8-2.1,2.1-2.6,3.4c-0.8,2-1.1,4.2-1.2,6.3
			c-0.1,2.1-0.1,4-0.1,5.2c-0.1,2.7-0.1,5.4-0.1,8.1c0,5.9,0.2,11.8,0.5,17.7c0.1,1.5,0.3,2.9,1,4.3c0.4,0.7,1,1.3,1.7,1.7
			s1.6,0.7,2.5,0.8c7,0.6,14.1,1,21.4,1c5.9,0,11.9-0.2,18-0.6c1.6-0.1,3-0.8,4-1.8c1.1-1,1.9-2.4,1.9-4.1c0-1-0.3-2-1-2.9l-1.4,1
			h1.7v-0.4h-1.7l1.4,0.9c0.3-0.4,0.5-0.9,0.5-1.6c0-0.3-0.1-0.7-0.2-1c-0.2-0.3-0.4-0.6-0.7-0.8l-2,2.8l0.7-1l-1.1,0.6
			c0.1,0.2,0.2,0.4,0.4,0.4l0.7-1l-1.1,0.6l1.1-0.5H608c0,0.1,0,0.3,0.1,0.5l1.1-0.5H608h0.8l-0.7-0.3c0,0,0,0.1,0,0.3h0.8l-0.7-0.3
			h0.1h-0.1l0,0h0.1h-0.1l-0.1,0.1l-0.3,0.4v0.9v0.5l0.3,0.4c0.3,0.4,0.3,0.7,0.3,1c0,0.5-0.3,1.1-0.8,1.6s-1.3,0.9-1.9,0.9
			c-6,0.4-12,0.6-17.8,0.6c-7.2,0-14.3-0.3-21.1-0.9c-0.5,0-0.9-0.2-1.1-0.3c-0.3-0.2-0.5-0.4-0.7-1c-0.2-0.5-0.3-1.3-0.4-2.3
			c-0.3-5.8-0.5-11.6-0.5-17.5c0-2.7,0-5.4,0.1-8c0-1,0-2.3,0-3.8c0-2.1,0.3-4.5,0.8-6.2c0.3-0.8,0.7-1.5,1.1-1.9
			c0.4-0.4,0.8-0.6,1.4-0.7L567.3,804.3z"/>
		<path class="st5" d="M611.2,843.9c1.2-6.5,1.8-12.8,1.8-19c0-4.9-0.4-9.7-1.1-14.5c-0.2-1.4-0.7-2.7-1.4-3.7
			c-0.5-0.7-1.2-1.3-1.9-1.8c-1.1-0.7-2.3-1-3.5-1.3c-1.2-0.2-2.5-0.4-3.8-0.5c-4.4-0.5-8.9-0.8-13.3-0.8c-6.9,0-13.8,0.6-20.8,1.9
			l0.6,3.4c6.7-1.2,13.4-1.8,20.2-1.8c4.3,0,8.6,0.2,12.9,0.7c2.4,0.3,4.3,0.5,5.5,1.1c0.6,0.3,1,0.6,1.4,1.1
			c0.3,0.5,0.6,1.1,0.8,2.2c0.7,4.5,1.1,9.2,1.1,13.9c0,6-0.6,12.1-1.7,18.4L611.2,843.9z"/>
		<path class="st8" d="M611.2,843.5c-0.3-10.4-0.4-20.7-0.5-31c0-1.3-0.2-2.4-0.5-3.4c-0.3-0.8-0.7-1.4-1.2-2
			c-0.8-0.9-1.8-1.4-2.9-1.7c-1.1-0.3-2.3-0.4-3.7-0.4c-9.8-0.2-19.5-0.3-29.3-0.5c-2.5,0-4.3-0.1-5.5-0.3l-0.4,3.4
			c1.4,0.1,3.3,0.2,5.9,0.3c9.7,0.1,19.5,0.3,29.3,0.5c1.1,0,2,0.1,2.6,0.2c0.5,0.1,0.9,0.2,1.1,0.4c0.4,0.2,0.6,0.5,0.8,1
			s0.4,1.3,0.4,2.5c0.1,10.3,0.3,20.6,0.5,31H611.2z"/>
		<path class="st5" d="M351,850.4c1.6-7.9,2.4-15.9,2.4-23.8c0-4-0.2-7.9-0.6-11.9c-0.1-1.3-0.2-2.6-0.4-3.8
			c-0.1-0.9-0.3-1.8-0.7-2.7c-0.5-1.3-1.4-2.6-2.7-3.5c-1.4-0.9-3.1-1.3-5.2-1.5l-0.2,3.4c1.6,0.1,2.6,0.4,3.3,0.8
			c0.5,0.3,0.9,0.6,1.1,1c0.4,0.6,0.7,1.5,0.9,2.6c0.2,1.1,0.3,2.5,0.4,4c0.4,3.9,0.6,7.7,0.6,11.6c0,7.7-0.8,15.4-2.3,23.1
			L351,850.4z"/>
		<path class="st4" d="M343.8,803.3c-5.2-0.5-10.2-0.7-15.4-0.7c-5.5,0-11.1,0.2-17.1,0.5c-1,0-2,0.1-3,0.2
			c-1.4,0.2-2.9,0.5-4.1,1.5c-0.6,0.5-1.1,1.2-1.4,2s-0.6,1.7-0.7,2.7c-0.2,1.7-0.3,3.5-0.4,5.2c-0.4,10-0.5,20-0.9,30
			c0,0.3,0,0.5,0,0.7c0,1.8,0.3,3.3,1,4.6c0.5,0.9,1.3,1.7,2.1,2.2c1.3,0.8,2.7,1.1,4.1,1.3c1.5,0.2,3,0.2,4.5,0.2
			c1.7,0,3.5,0,5.2,0c9.9,0,20.2-0.3,30.8-0.8l0,0l0,0c0.3,0,0.6-0.1,0.9-0.2c0.3-0.1,0.6-0.3,0.9-0.6l0,0l0,0
			c0.4-0.4,0.6-1,0.6-1.6s-0.2-1-0.4-1.4l-2.9,1.8h0.1h-0.1l0,0h0.1h-0.1l0.8-0.4h-0.8c0,0.2,0.1,0.3,0.1,0.4l0.8-0.4h-0.8h1.2
			l-0.8-0.8c-0.2,0.2-0.3,0.5-0.3,0.8h1.2l-0.8-0.8l1.2,1.2l-1.2-1.2l0.7,0.7l-0.3-1c-0.1,0-0.2,0.1-0.4,0.3l0.7,0.7l-0.3-1l0.1,0.4
			l-0.1-0.4h-0.1l0.1,0.4l-0.1-0.4l0,0l0,0c-10.5,0.5-20.7,0.8-30.6,0.8c-1.7,0-3.5,0-5.2,0c-2.7,0-5.1-0.1-6.4-0.7
			c-0.7-0.3-1.1-0.7-1.4-1.2c-0.3-0.6-0.6-1.5-0.6-2.9c0-0.2,0-0.4,0-0.6c0.5-10,0.5-20,0.9-30c0.1-1.7,0.2-3.3,0.4-5
			c0.1-1,0.3-1.6,0.5-1.9c0.2-0.3,0.3-0.4,0.6-0.6c0.4-0.2,0.9-0.4,1.8-0.5c0.8-0.1,1.8-0.2,3-0.2c6-0.3,11.5-0.5,16.9-0.5
			c5.1,0,10,0.2,15,0.7L343.8,803.3z"/>
		<path class="st8" d="M342,805h0.2H342L342,805h0.2H342h0.7l-0.6-0.4C342,804.8,341.9,805,342,805h0.7l-0.6-0.4l0.6,0.4l-0.3-0.6
			c0,0-0.2,0.1-0.3,0.3l0.6,0.4l-0.3-0.6l0.7,1.5l-0.7-1.6c-0.9,0.4-1.4,1.2-1.4,2.1c0,0.3,0.1,0.7,0.2,1c0.3,0.8,1.1,1.3,1.9,1.4
			l0.2-1.7l-0.2,1.7c1.4,0.1,2.6,0.4,3.2,0.9c0.3,0.2,0.5,0.4,0.7,0.7s0.3,0.7,0.3,1.4c0.1,8,0.2,20.8,0.3,38.2h3.4
			c-0.1-17.4-0.2-30.2-0.3-38.2c0-1.1-0.2-2.1-0.7-2.9c-0.7-1.3-1.8-2.1-3-2.6s-2.4-0.7-3.6-0.8l0,0l0,0l-0.1,1.1l1-0.4
			c-0.2-0.3-0.5-0.6-0.9-0.6l-0.1,1.1l1-0.4l-1,0.4h1.1l-0.1-0.4l-1,0.4h1.1h-1.1l0.4,1c0.4-0.2,0.6-0.6,0.6-1h-1.1l0.4,1l0,0l0,0
			c0.4-0.2,0.9-0.5,1.2-1c0.3-0.5,0.4-1,0.4-1.5v-0.1L342,805z"/>
		<path class="st4" d="M632.3,803.4c-1.5,0.2-2.8,0.8-3.8,1.8s-1.6,2.3-1.8,3.7c-1.2,7.8-1.7,15.8-1.7,23.8c0,4.7,0.2,9.3,0.4,13.8
			c0.1,1.8,0.6,3.4,1.8,4.5c1.1,1.2,2.7,1.8,4.5,1.9c6,0.4,12,0.7,18,0.7c7.3,0,14.6-0.3,21.9-0.9c0.6-0.1,1.2-0.2,1.8-0.5
			c0.8-0.4,1.4-1.1,1.8-1.8c0.3-0.7,0.4-1.5,0.4-2.1c0-0.7-0.1-1.3-0.2-1.9l-3.3,0.8c0.1,0.4,0.1,0.8,0.1,1.1c0,0.4-0.1,0.7-0.2,0.7
			l-0.1,0.1c-0.1,0-0.3,0.1-0.6,0.1c-7.3,0.6-14.5,0.9-21.6,0.9c-6,0-11.9-0.2-17.8-0.6c-1.2-0.1-1.9-0.4-2.3-0.9
			c-0.4-0.4-0.7-1.1-0.8-2.4c-0.2-4.5-0.4-9.1-0.4-13.7c0-7.9,0.4-15.8,1.6-23.3c0.1-0.9,0.4-1.4,0.8-1.8c0.4-0.4,1-0.7,2-0.9
			L632.3,803.4z"/>
		<path class="st5" d="M675.4,847.1c1.2-7.6,1.7-15.2,1.7-22.8c0-3.2-0.1-6.3-0.3-9.5c-0.2-2.8-0.6-5.4-2-7.5
			c-0.7-1-1.7-1.9-2.9-2.6c-1.2-0.6-2.6-1-4.2-1.2c-6.4-0.6-12.9-1-19.4-1c-5.3,0-10.6,0.3-15.9,0.8l0.4,3.4
			c5.1-0.6,10.3-0.8,15.5-0.8c6.4,0,12.8,0.4,19.1,1c1.3,0.1,2.3,0.4,3,0.8c1.1,0.6,1.7,1.3,2.2,2.5s0.8,2.8,0.9,4.7
			c0.2,3.1,0.3,6.2,0.3,9.2c0,7.4-0.6,14.9-1.7,22.3L675.4,847.1z"/>
		<path class="st8" d="M675.4,846.8c-0.2-11.5-0.4-23-0.5-34.4c0-1.1-0.1-2.1-0.4-3c-0.2-0.7-0.6-1.3-1-1.8
			c-0.7-0.8-1.6-1.3-2.6-1.6s-2-0.4-3.2-0.4c-11.2-0.2-22.4-0.4-33.6-0.7l0,0H634l0,0l-0.2,0.5l0.5-0.3l-0.3-0.2l-0.2,0.5l0.5-0.3
			l-0.4,0.2l0.4-0.2V805l-0.4,0.2l0.4-0.2l-0.2,0.1l0.2-0.1l0,0l-0.2,0.1l0.2-0.1v-0.2l-3.4,0.2c0,0.4,0.1,0.7,0.2,1.1
			c0.2,0.6,0.6,1.2,1.2,1.5c0.6,0.3,1.2,0.4,1.7,0.5l0,0c11.2,0.3,22.4,0.5,33.6,0.7c0.9,0,1.6,0.1,2.1,0.2c0.4,0.1,0.7,0.2,0.8,0.3
			c0.3,0.2,0.5,0.4,0.6,0.8c0.2,0.4,0.3,1.1,0.3,2.1c0.1,11.4,0.3,22.9,0.5,34.4L675.4,846.8z"/>
		<path class="st9" d="M474.6,817.7c0-1.6-1.4-3-3-3l0,0l-25.7,0.2c-1.6,0-3,1.4-3,3l0,0v2.6c0,1.6,1.4,3,3,3l0,0l0,0l0,0l25.7-0.2
			c1.6,0,3-1.4,3-3l0,0l0,0V817.7h-3.4v2.6l0,0l0,0l0,0h0.4v-0.4c-0.2,0-0.4,0.2-0.4,0.4h0.4v-0.4l-25.7,0.2l0,0l0,0l0,0v0.4h0.4
			c0-0.2-0.2-0.4-0.4-0.4v0.4h0.4v-2.6l0,0l0,0h-0.4v0.4c0.2,0,0.4-0.2,0.4-0.4h-0.4v0.4l25.7-0.2l0,0l0,0v-0.4h-0.4
			c0,0.2,0.2,0.4,0.4,0.4v-0.4h-0.4H474.6z"/>
		<path class="st9" d="M344.1,819.1L344.1,819.1c0-2.1-1.7-3.8-3.8-3.9l-21.7-0.3l0,0h-0.1c-2.1,0-3.8,1.7-3.8,3.8v1l0,0v0.1
			c0,2.1,1.7,3.8,3.8,3.8l21.7,0.3l0,0h0.1c2.1,0,3.8-1.7,3.8-3.8V819.1l-3.4-0.1v1c0,0.2-0.2,0.4-0.4,0.4l0,0l-21.7-0.3
			c-0.2,0-0.4-0.2-0.4-0.4l0,0v-1c0-0.2,0.2-0.4,0.4-0.4l0,0l21.7,0.3c0.2,0,0.4,0.2,0.4,0.4l0,0L344.1,819.1z"/>
		<path class="st9" d="M409.8,818.4L409.8,818.4c0-2-1.6-3.6-3.5-3.6l-23.8-0.2l0,0l0,0c-2,0-3.6,1.6-3.6,3.5v1.6l0,0l0,0
			c0,2,1.6,3.6,3.5,3.6l0,0l23.8,0.2l0,0l0,0c2,0,3.6-1.6,3.6-3.5V818.4h-3.4v1.6l-0.2,0.2l0,0l-23.8-0.2l0,0v1.7V820l-0.2-0.2l0,0
			v-1.6l0.2-0.2l0,0l23.8,0.2l0.2,0.2l0,0H409.8z"/>
		<path class="st9" d="M734.4,818.5c0-1.9-1.6-3.5-3.5-3.5l0,0h-24.1c-1.9,0-3.5,1.6-3.5,3.5v1.4c0,1.9,1.6,3.5,3.5,3.5h24.1
			c1.9,0,3.5-1.6,3.5-3.5V818.5H731v1.4l-0.1,0.1h-24.1l-0.1-0.1v-1.4l0.1-0.1h24.1l0,0l0.1,0.1H734.4z"/>
		<path class="st9" d="M799.2,818c0-1.6-1.3-3-3-3h-26c-1.6,0-3,1.3-3,3v2.4c0,1.6,1.3,3,3,3h26c1.6,0,3-1.3,3-3V818h-3.4v2.4h0.4
			V820c-0.2,0-0.4,0.2-0.4,0.4h0.4V820h-26v0.4h0.4c0-0.2-0.2-0.4-0.4-0.4v0.4h0.4V818h-0.4v0.4c0.2,0,0.4-0.2,0.4-0.4h-0.4v0.4h26
			V818h-0.4c0,0.2,0.2,0.4,0.4,0.4V818h-0.4H799.2z"/>
		<path class="st9" d="M670.9,819L670.9,819c0-2.1-1.6-3.7-3.6-3.7l-25.1-0.5h-0.1c-2,0-3.6,1.6-3.7,3.6v1.3l0,0v0.1
			c0,2,1.6,3.6,3.6,3.7l25.1,0.5h0.1c2,0,3.6-1.6,3.7-3.6V819l-3.4-0.1v1.3l-0.2,0.2l0,0l-25.1-0.5l-0.2-0.2l0,0l0,0v-1.3l0.2-0.2
			l0,0l25.1,0.5l0.2,0.2l0,0L670.9,819z"/>
		<path class="st9" d="M541.1,817.5L541.1,817.5c0-1.6-1.2-2.8-2.8-2.9l-27.3-0.3l0,0c-1.5,0-2.8,1.2-2.8,2.8v2.7l0,0
			c0,1.5,1.2,2.8,2.8,2.8l27.3,0.3l0,0c1.5,0,2.8-1.2,2.8-2.8l0,0V817.5h-3.4v2.7l0,0h1.7h-1.7h0.6v-0.6c-0.3,0-0.6,0.3-0.6,0.6h0.6
			v-0.6v0.5v-0.5l0,0v0.5v-0.5l-27.2-0.3v0.6h0.6c0-0.3-0.3-0.6-0.6-0.6v0.6h0.6h-0.5h0.5l0,0h-0.5h0.5v-2.7h-0.6v0.6
			c0.3,0,0.6-0.3,0.6-0.6h-0.6v0.6v-0.5v0.5l0,0v-0.5v0.5l27.2,0.3v-0.6h-0.6c0,0.3,0.3,0.6,0.6,0.6v-0.6h-0.6h0.5h-0.5l0,0h0.5
			h-0.5H541.1z"/>
		<path class="st9" d="M278.8,817.8L278.8,817.8c0-1.7-1.4-3.1-3.1-3.1l-24-0.2l0,0l0,0c-1.7,0-3.1,1.4-3.1,3.1l0,0l0,0l0,0v2.8l0,0
			l0,0c0,1.7,1.4,3.1,3.1,3.1l24,0.2l0,0l0,0c1.7,0,3.1-1.4,3.1-3.1V817.8h-3.4v2.8h0.3v-0.3l-0.3,0.3h0.3v-0.3l0,0l0,0l-24-0.2v0.3
			h0.3l-0.3-0.3v0.3h0.3l0,0l0,0v-2.8l0,0l0,0h-0.3v0.3l0.3-0.3h-0.3v0.3l0,0l0,0l24,0.2v-0.3h-0.3l0.3,0.3v-0.3h-0.3l0,0H278.8z"/>
		<path class="st9" d="M234.6,824.5c0.7,0.6,1.5,1.1,2.5,1.1c0.4,0,0.8-0.1,1.2-0.2l0,0l0,0c0.6-0.2,1.1-0.8,1.3-1.4l0,0l1.6-4.4
			l0,0c0.1-0.3,0.2-0.6,0.2-1c0-0.9-0.4-1.7-1.2-2.3c-0.5-0.3-1.1-0.6-1.8-0.8s-1.4-0.4-2.2-0.4c-0.6,0-1.2,0.1-1.8,0.4
			c-0.6,0.3-1.2,0.8-1.5,1.5l0,0c-0.4,0.9-0.6,1.9-0.6,2.8c0,0.9,0.2,1.8,0.6,2.5C233.4,823.2,234,823.9,234.6,824.5l2.3-2.5
			c-0.4-0.4-0.7-0.8-0.9-1.1s-0.2-0.7-0.2-1c0-0.4,0.1-0.9,0.4-1.4l0,0l-0.3-0.1l0.1,0.3l0.1-0.2l-0.3-0.1l0.1,0.3h0.1h0.2
			c0.3,0,0.8,0.1,1.2,0.2c0.4,0.1,0.8,0.3,0.9,0.4l0.4-0.6H238c0,0.2,0.1,0.4,0.3,0.6l0.4-0.6H238h0.7l-0.7-0.2v0.2h0.7l-0.7-0.2
			l0,0l-1.6,4.4l0,0l0.9,0.4l-0.4-0.9c-0.2,0.1-0.5,0.4-0.6,0.6l0.9,0.4l-0.4-0.9l0.6,1.6l-0.6-1.6v0.1v-0.1l0,0v0.1v-0.1v0.2v-0.2
			l0,0v0.2v-0.2v0.2v-0.2l0,0v0.2v-0.2l0,0l-0.3-0.2L234.6,824.5z"/>
		<path class="st9" d="M572.6,817.5L572.6,817.5c0,1.8,0.8,3.3,1.9,4.3c1.1,1,2.6,1.6,4.1,1.6c4.3,0.1,11.4,0.1,21.2,0.2l0,0
			c1.4,0,2.8-0.1,4-0.7c0.6-0.3,1.2-0.8,1.7-1.3c0.5-0.6,0.9-1.3,1.2-2c0.2-0.5,0.3-1,0.3-1.5s-0.1-1-0.4-1.5
			c-0.2-0.3-0.5-0.6-0.8-0.8c-0.5-0.3-0.9-0.4-1.3-0.4c-0.4-0.1-0.8-0.1-1.1-0.1c-9.5,0-18.9-0.1-28.3-0.3l0,0l0,0l0,0
			C573.7,814.9,572.6,816,572.6,817.5L572.6,817.5L572.6,817.5h3.4l0,0h-1.7h1.7h-0.8v0.8c0.5,0,0.8-0.4,0.8-0.8h-0.8v0.8v-0.4v0.4
			l0,0v-0.4v0.4l0,0c9.4,0.1,18.9,0.2,28.3,0.3c0.2,0,0.5,0,0.6,0h0.2l0.1-0.4l-0.2,0.3h0.1l0.1-0.4l-0.2,0.3l0.5-0.7l-0.8,0.4
			c0.1,0.2,0.2,0.3,0.3,0.3l0.5-0.7l-0.8,0.4l0.6-0.3h-0.7c0,0,0,0.2,0.1,0.3l0.6-0.3h-0.7l0,0c0,0,0,0.2-0.1,0.4
			c-0.2,0.5-0.4,0.8-0.5,1c-0.3,0.3-0.6,0.5-1.1,0.7s-1.2,0.2-2.1,0.2l0,0c-9.8,0-16.9-0.1-21.1-0.2c-0.7,0-1.4-0.3-1.9-0.8
			s-0.8-1-0.8-1.7l0,0L572.6,817.5z"/>
		<path class="st5" d="M405.2,913.2c-0.1,0.6-0.3,1.8-0.3,3.1c0,0.9,0.1,1.7,0.4,2.7c0.2,0.4,0.4,0.9,0.9,1.3
			c0.5,0.4,1.2,0.7,1.8,0.7c7,0,13.9,0,20.8,0c60.9,0,120.3,0,185.4-0.2v-3.4c-65.1,0.2-124.5,0.2-185.4,0.2c-6.9,0-13.8,0-20.8,0
			v0.7l0.4-0.5l-0.4-0.2v0.7l0.4-0.5l-0.3,0.3l0.3-0.3l-0.1-0.1L408,918l0.3-0.3l-0.1,0.1h0.1l0,0l-0.1,0.1h0.1c0,0-0.1-0.2-0.1-0.5
			s-0.1-0.7-0.1-1c0-1,0.2-2.1,0.2-2.4L405.2,913.2z"/>
		<path class="st6" d="M614,920.8c0.2,0,0.5,0,0.7,0c0.8,0,1.6-0.2,2.4-0.6l0.4-0.2l0.4-0.8l0.2-0.4v-0.5c0-2.4,0-4.8,0-7.1
			c0-4.8,0-9.5,0-14.3c0-0.7-0.1-1.4-0.3-2c-0.3-1-1-1.8-1.9-2.3S614,892,613,892c-67.5,0-135,0-202.4,0c-1,0-2.1,0.1-3.2,0.7
			c-0.5,0.3-1.1,0.7-1.4,1.4c-0.4,0.6-0.5,1.3-0.6,2.1c-0.1,5.8-0.1,11.6-0.2,17.4h3.4c0.1-5.8,0.1-11.6,0.2-17.4
			c0-0.2,0-0.3,0.1-0.3c0,0,0.1-0.1,0.4-0.2c0.3-0.1,0.8-0.2,1.3-0.2c67.5,0,135,0,202.4,0c0.4,0,0.8,0.1,1,0.1
			c0.3,0.1,0.4,0.2,0.5,0.3s0.2,0.5,0.2,1.1c0,4.7,0,9.5,0,14.2c0,2.4,0,4.8,0,7.1h1.7l-1.5-0.8l-0.2,0.4l1.5,0.8l-0.9-1.5
			c-0.1,0.1-0.3,0.1-0.6,0.1h-0.4L614,920.8z"/>
		<path class="st7" d="M615.9,919c-0.2-5-0.3-10-0.4-15c0-0.7-0.1-1.3-0.2-2c-0.2-0.9-0.7-2-1.6-2.6c-0.9-0.7-2-1-3.2-1
			c-66.9-0.1-133.8-0.2-200.6-0.3c-1.5,0-2.8,1.2-2.9,2.7l0,0l0,0c-0.1,1.7-0.1,3.4-0.1,5.2c0,2.1,0.1,4.2,0.2,6.4l0,0l0,0l0,0h0.4
			l-0.4-0.2v0.1h0.4l-0.4-0.2l0.7,0.3l-0.3-0.7l-0.4,0.4l0.7,0.3l-0.3-0.7l0.2,0.3l-0.1-0.4h-0.1l0.2,0.3l-0.1-0.4h-0.1
			c-0.1,0-0.2,0-0.4,0l-0.6,3.4c0.3,0.1,0.6,0.1,0.9,0.1s0.7,0,1.1-0.1c0.5-0.2,1.1-0.5,1.5-1.1c0.4-0.5,0.5-1.1,0.5-1.7v-0.2l0,0
			c-0.1-2.1-0.2-4.2-0.2-6.2c0-1.7,0-3.3,0.1-5l0,0h-0.6v0.6c0.3,0,0.5-0.2,0.6-0.5h-0.6v0.6c66.8,0.1,133.7,0.2,200.6,0.3
			c0.5,0,0.8,0.1,1,0.1l0.2,0.1c0.1,0.1,0.2,0.2,0.3,0.5s0.1,0.8,0.2,1.4c0.1,5,0.2,10,0.4,15L615.9,919z"/>
		<path class="st10" d="M886.4,687.7c0.5,1,1.2,1.7,2.3,2.2c4.1,3.9,6.1,10,8.5,15c1.3,2.7,2.2,5.1,2.2,8.3c0,69.3,0,138.6,0,207.9
			c0,1.9-0.2,3.6-0.5,5.1c-5,21.7-21,36.5-43,40.2c-5.7,1-11.3,1.5-16.7,1.5c-206.1-0.2-412.2-0.1-618.3,0l-0.3,0.1
			c-0.1,0.1-0.3,0.1-0.4,0.1c-14.1,0.2-28.6,0.7-42.4-0.8c-1.1-0.1-2.8-0.4-5.1-0.7c-6.9-1.1-13.4-3.3-19.6-6.5l-0.3-0.3
			c-0.1-0.1-0.2-0.2-0.4-0.3l-0.3-0.1c-4.4-2.5-8.1-5.4-11.1-8.7c-6.9-7.7-12-17.7-13.8-28c-1.1-6.5-1.2-13.2-1.3-19.8
			c-0.1-11.7-0.2-28.6,0-50.8c0.1-15.3,0.5-30.6,0-45.9c-0.1-3.5-0.2-6.9-0.3-10.4c0-2.5-0.5-5.8-0.4-8.8l-0.1-0.4
			c-0.1-0.3-0.2-0.7-0.2-1.2c-0.1-14.4,0-31.1,0.3-50.3c0.2-13.3,2.3-26.8,9.2-38.2c6.2-10.3,15-17.8,26.4-22.4
			c0.8-0.3,1.7-0.5,2.6-0.5c233,0,465.9,0,698.9,0c5.3,0,9.5,0.6,13.3,3.7C877.3,679.1,881,682.5,886.4,687.7z M144.1,723.2
			l-0.7,175.7c-0.3,5.3-0.2,10.1,0.1,14.5c1.7,21.8,18.8,36.4,40.4,36.4c204.2-0.8,408.4-0.7,612.5,0c9.7,0,24.5,0,44.4-0.2
			c7.1-0.1,14.4-0.7,20.7-3.5c18.9-8.6,23-29.7,22.1-48.4V794.5v-0.2l-0.1-0.3c0-24,0-48,0-72c-1-5.9-3-11.1-6-15.8
			c-5.5-8.5-13.4-13.5-23.9-14.8c-9.2-1.2-19-1.2-29.2-1.2c-150-0.5-300-0.5-450-0.1c-63.5,0.2-127-0.3-190.5,0.3
			c-5.9,0.1-12.5,0.6-17.8,2.6C152.9,698,146.3,709.6,144.1,723.2z"/>
		<path class="st11" d="M886.4,687.7l2.3,2.2C887.7,689.4,886.9,688.7,886.4,687.7z"/>
		<path class="st12" d="M883.6,722.1c-1.2,1-2.4,1.6-3.4,2.1c-0.9,0.4-1.7,0.3-2.6-0.4l-0.3-0.4c-3.4-9.6-9.5-19-18.7-23.9
			c-3.4-1.8-6.6-2.7-9.7-2.7c-223.9,0-447.9,0-671.8,0c-7.8,0-14.1,4.4-18.9,10.4c-4.4,5.5-9,10.8-13.8,16l-0.3,0.1h-0.2
			c2.2-13.6,8.9-25.2,22.2-30.2c5.3-2,12-2.5,17.8-2.6c63.5-0.6,127-0.1,190.5-0.3c150-0.5,300-0.4,450,0.1c10.2,0,20,0,29.2,1.2
			c10.4,1.4,18.4,6.3,23.9,14.8C880.5,711,882.5,716.2,883.6,722.1z"/>
		<path class="st13" d="M883.6,722.1c0,24,0,48,0,72l0.1,0.3v0.2v103.2c-1.4,0.9-2.8,1.9-4.1,2.8c-7.6,5.3-16.4,9.2-25.6,10.3
			c-2.2,0.3-5.3,0.4-9.3,0.3c-19.5-0.4-39-0.4-58.4,0c-3.3,0.1-6.4,0.1-9.3,0.1c-44.5-0.2-89-0.2-133.5,0c-3.2,0-7.3,1.2-10.3-0.1
			c0.3-5.8,0.4-10.3,0.3-13.6c-0.2-7.8-1.7-18.5-11.8-18.9c-4.2-0.2-8.3-0.2-12.5-0.3c-68.7-0.5-137.5-0.2-206.2,0
			c-14.7,0-13.6,18.1-12.8,28c0.1,1.3,0,2.8,0.2,4.2c-70.5,0.9-141.1-0.1-211.7,0.8c-4.2,0.1-7.3-0.1-9.3-0.4
			c-9.3-1.4-17.7-6.6-25.6-12l-0.2-0.1h-0.2l0.7-175.7h0.2l0.3-0.1c4.8-5.2,9.3-10.5,13.8-16c4.8-6,11.1-10.4,18.9-10.4
			c223.9,0,447.9,0,671.8,0c3.1,0,6.3,0.9,9.7,2.7c9.2,4.9,15.3,14.4,18.7,23.9l0.3,0.4c0.8,0.6,1.7,0.8,2.6,0.4
			C881.2,723.7,882.3,723,883.6,722.1z M411.4,709.7c0-1.3-1.1-2.3-2.3-2.3l-23.8,0.3c-1.3,0-2.3,1.1-2.3,2.3v4
			c0,1.3,1.1,2.3,2.3,2.3l23.8-0.3c1.3,0,2.3-1.1,2.3-2.3V709.7z M294.6,722c0-0.9-2-1.8-4.5-1.9c-2.5-0.1-4.6,0.6-4.7,1.5
			c0,0.9,2,1.8,4.5,1.9C292.5,723.6,294.6,723,294.6,722z M247.2,722.2c0-0.9-2-1.7-4.6-1.8s-4.7,0.5-4.8,1.4c0,0.9,2,1.7,4.6,1.8
			C245.1,723.7,247.2,723.1,247.2,722.2z M822.3,743.2c0-7.3-5.9-13.2-13.2-13.2H215.7c-7.3,0-13.2,5.9-13.2,13.2v112.7
			c0,7.3,5.9,13.2,13.2,13.2h593.4c7.3,0,13.2-5.9,13.2-13.2L822.3,743.2L822.3,743.2z"/>
		<path class="st12" d="M385.3,707.7l23.8-0.3c1.3,0,2.3,1,2.3,2.3v4c0,1.3-1,2.3-2.3,2.3l-23.8,0.3c-1.3,0-2.3-1-2.3-2.3v-4
			C383,708.8,384,707.7,385.3,707.7z"/>
		<path class="st12" d="M290.1,720.1c2.5,0.1,4.6,1,4.5,1.9c0,0.9-2.1,1.6-4.7,1.5c-2.5-0.1-4.6-1-4.5-1.9
			C285.4,720.7,287.5,720,290.1,720.1z"/>
		<path class="st12" d="M242.6,720.4c2.6,0.1,4.7,0.9,4.6,1.8c0,0.9-2.2,1.5-4.8,1.4s-4.7-0.9-4.6-1.8
			C237.9,720.9,240,720.3,242.6,720.4z"/>
		<path class="st10" d="M822.3,855.9c0,7.3-5.9,13.2-13.2,13.2H215.7c-7.3,0-13.2-5.9-13.2-13.2V743.2c0-7.3,5.9-13.2,13.2-13.2
			h593.4c7.3,0,13.2,5.9,13.2,13.2L822.3,855.9L822.3,855.9z M766,747.9c-0.3,0-0.7,0-1.1,0.2h-0.4c-3-1.9-6.4-0.1-7.5,3
			c-0.7,2.1-1.1,4.5-1.3,7.2c-0.6,9-0.2,18.4,0.3,27.4c0.2,3.5,7.9,3.9,10.8,3.9c11.8,0.1,23.5-0.1,35.1-0.7
			c3.3-10.6,2.7-20.6,2.5-31.9c-0.1-5.3-2.2-9.6-7.8-10.2c-3.4-0.4-7.6-0.5-12.6-0.3C778,746.5,772,747.1,766,747.9z M438.8,747.6
			c-2.8,0.8-4.6,2.5-4.9,5.5c-1.3,11.4-1.4,22.2-0.1,32.7c0.2,1.9,1.8,2.6,3.6,2.6c14,0.1,28,0.3,42,0.4l0.3-0.2v-0.2
			c1.4-6.6,7.2-40.5-3.8-41.2C463.1,746.5,451.2,746.8,438.8,747.6z M504,747.5c-4,1.2-5.7,4.7-6,8.7c-0.7,9.7-0.6,19.4,0.2,29
			c0.2,1.8,1,3.3,2.9,3.4c13,1.1,26.8,1.1,41.2,0.1c1.6-0.3,2.6-0.9,2.8-2.7c0.8-5.7,4.7-38.2-4.4-38.8
			C528.6,746.4,515.6,746.9,504,747.5z M569.3,748.2c-0.6,0-1.2-0.1-1.8-0.1c-5.3,0.1-5.5,10.9-5.6,14.6c-0.1,7.1,0.1,14.1,0.7,21.1
			c0.3,3.2,1.2,5.2,4.7,5.2c18,0.1,31.4,0.2,40.2,0.1c2.1,0,2.4-3.7,2.3-5.1c1-6.4,5.3-36.1-5.3-36.8
			C592.8,746.5,581.1,746.8,569.3,748.2z M374.7,747.9c-4.9-0.3-6.1,2.6-6.3,7.1c-0.5,9-0.5,19.3,0.1,30.9c0.1,2.1,0.8,2.6,2.9,2.7
			c14.1,0.2,28.2,0.4,42.2,0.5c0.3,0,0.4-0.2,0.4-0.7c3.7-10.8,4.7-21.7,3.2-32.9c-0.8-5.4-2.9-8.3-8.7-8.4
			C395.8,746.8,384.5,747.1,374.7,747.9z M697.3,747.9c-1.9-0.3-4.3,2.4-5.1,3.8c-0.4,0.7-0.6,1.6-0.6,2.7
			c-0.1,10.3-0.2,20.5-0.2,30.8c0,2.5,1.3,3.4,3.7,3.4c13.6,0.2,27.2,0.4,40.8,0.5c0.2,0,0.3-0.1,0.4-0.2l0.4-0.9
			c3.7-11.1,4.6-22.4,2.8-34c-0.7-4.4-3.3-6.7-7.9-6.9C719.7,746.6,708.4,746.9,697.3,747.9z M227.1,748.2c-0.5,0-1.1-0.1-1.8-0.2
			c-3.3-0.4-4,4.8-4.1,7.1c-0.4,12-0.5,22-0.5,30.2c0,2.4,1.1,3.2,3.5,3.2c20.1,0.1,40.1,0.2,60.1,0.1c0.4,0,0.8-0.2,1-0.6
			c1.2-2.3,1.7-4.9,1.5-7.6c0.7-10.1,0.6-19-0.2-26.7c-0.4-4.4-4.3-6.5-8.4-6.6C264.5,747,244.1,746.8,227.1,748.2z M310.4,747.7
			c-11.6-3.1-7.6,32.5-7,37.6c0.3,2.3,1.4,3.3,3.7,3.3c12,0.2,23.9,0.3,35.9,0.5c1.6-0.2,3.2-0.5,4.8-0.8c4.9-0.9,3.4-27.9,3.3-32
			c-0.3-7.5-2.5-9.1-10.1-9.1C330.9,747.3,320.7,747.4,310.4,747.7z M633.2,747.9c-2.1,0.2-3.8,1.3-5.1,3.4
			c-0.5,0.7-0.7,1.6-0.9,2.7c-1.1,10.4-1.1,20.9,0.1,31.3c0.3,2.2,1.7,3.1,3.8,3.2c13.5,0.3,27,0.5,40.6,0.8c0.2,0,0.3,0,0.4-0.1
			c0.2-0.2,0.3-0.4,0.2-0.6c3.5-11.5,4.3-23.2,2.5-34.9c-0.9-5.6-3.9-6.3-9-6.4C654.2,747.1,643.6,747,633.2,747.9z M479.5,850.2
			c1.4-4.1,2.3-8.2,2.5-12.3c0.4-7.6,0.4-15.5-0.2-23.6c-0.2-2.6-0.5-4.5-1.1-5.5c-2-3.8-6.7-4.7-10.8-4.3c-6.4-1-33.6-3.8-35.7,4.9
			c0,0.2-0.1,1.4-0.3,3.8c-0.8,10.8-1,21.7-0.7,32.6c0.1,4.5,2.6,5.5,6.8,5.4c13-0.2,26-0.3,39-0.5l0.3-0.2L479.5,850.2z
			 M377.7,804.4l-6.6,1.3l-0.4,0.2c-0.4,0.5-0.7,1.1-0.9,1.8c-3.3,13.1-1.4,26.9-1.3,40.2c0,3.1,2.1,3.5,4.8,3.5
			c9.5-0.1,22.8-0.1,40-0.1c0.5,0,0.9-0.1,1.1-0.4c0.9-1.6,1.5-2.9,1.7-3.7c2.3-11.4,1.3-23.3,0.4-35.1c-0.4-5.2-3.5-6.6-8.4-7.2
			C398,803.6,387.9,803.5,377.7,804.4z M762,805.2c-1.8,0.2-3.1,1-3.9,2.6c-0.5,0.9-0.8,2.3-1,4.3c-1.1,11.3-1.2,22.6-0.5,34
			c0.2,3,0.7,5.6,4.1,5.7c10.6,0.3,23.7,0.2,39.3-0.3c0.6,0,1-0.1,1.2-0.3c2.4-3,3.1-8.4,3.3-12.2c0.5-9.2,0.4-18.3-0.5-27.4
			c-0.3-2.9-1.2-5.5-4.2-6.1C788,803.4,775.4,803.2,762,805.2z M503.7,805.6c-0.5,0-1,0-1.7,0.1c-2.2,0.3-2.9,2.9-3,4.9
			c-1,13.2-1.3,25.1-0.7,35.5c0.2,3.2,1.8,4.9,5,5c5.3,0.2,17.7,0.2,37.1,0.1c0.4,0,1.3-0.2,2.8-0.7c1-0.7,1.8-1.8,1.9-3.2
			c0.7-5.8,4.4-40.5-3.2-41.8C529.9,803.3,517.2,803.4,503.7,805.6z M704.3,805.2c-0.3-0.1-0.7-0.1-1.1-0.1c-0.4,0-0.7,0-1.1-0.1
			c-5.5-1.3-9,0.5-9.4,6.4c-0.9,12.4-1.1,24.4-0.8,36c0.1,2.7,1.5,4,4.1,4c13.4-0.2,26.7-0.3,40.1-0.5c1.3-0.3,2.1-1.2,2.3-2.6
			c1.8-12.6,2.1-25.5,0.7-38.6c-0.1-1-0.5-2.2-1.4-2.6c-4.3-2.3-9-2.8-14.5-3C717,803.8,710.6,804.2,704.3,805.2z M225.3,806.1
			c-2.2-1.1-3.9,2.6-4,4.3c-1,13-1,25.9,0,38.9c0.1,1.1,0.7,1.7,1.8,1.7c12.7,0.5,24.2,0.8,34.7,0.9c11.4,0.1,19.1,0.1,23.2-0.2
			c3.5-0.2,5.4-2,5.8-5.3c1.5-12.9,1.2-26.9-1.3-39.8c0-0.2-0.1-0.3-0.3-0.3c-0.6-0.2-1.3-0.3-1.9-0.3c-16.6-1.9-33.6-2.2-50.9-0.8
			C229.6,805.4,227.2,805.7,225.3,806.1z M567.4,806c-5.5,0.6-4.8,10.3-4.9,14.1c-0.2,8.5-0.1,17.1,0.4,25.6
			c0.1,2.7,0.8,4.9,3.7,5.2c12.5,1.1,25.6,1.3,39.2,0.3c2.9-0.2,5.6-3.4,3.7-6.2v-0.4c0.3-0.5,0.4-0.9,0.1-1.1
			c2.1-11.4,2.3-22.4,0.6-32.9c-0.8-5-4.5-5.3-9.2-5.8C589.8,803.6,578.6,804,567.4,806z M349.3,850.1c2.3-11.7,2.9-23.5,1.8-35.2
			c-0.5-5.3-0.5-9.5-7.4-9.9c-10.6-1-20.7-0.7-32.2-0.2c-4.1,0.2-7,0.2-7.5,4.8c-0.2,1.7-0.3,3.4-0.4,5.1c-0.4,10-0.5,20-0.9,30
			c-0.3,7.1,4.4,7.2,10.1,7.3c11.5,0.1,23.5-0.1,35.9-0.8c0.3,0,0.6-0.1,0.7-0.2C349.5,850.7,349.5,850.4,349.3,850.1z M632.6,805.1
			c-2.5,0.4-3.9,1.8-4.2,4.1c-1.9,12.1-1.9,25-1.3,37.3c0.2,3,1.7,4.6,4.7,4.8c13.1,1,26.3,0.9,39.7-0.3c2.5-0.2,2.7-2.4,2.2-4.2
			c1.6-10.6,2.1-21.3,1.4-31.9c-0.3-5.4-1.7-9.1-7.6-9.6C656,804.1,644.2,803.8,632.6,805.1z"/>
		<path class="st14" d="M801.9,788.8c-0.6-1.6-0.9-2.8-1-3.7c-0.1-7.2,0-16.2,0.3-27c0.1-2.3,0-3.9-0.3-4.7c-0.5-1.7-3.1-5-5.2-4.7
			c-9.9,1.2-19.7,1.1-29.5-0.4c-0.2,0-0.3-0.2-0.2-0.4c6-0.8,12-1.3,18.1-1.5c5-0.2,9.2-0.1,12.6,0.3c5.6,0.7,7.6,5,7.8,10.2
			C804.7,768.2,805.3,778.2,801.9,788.8z"/>
		<path class="st14" d="M479.6,788.4c-0.3-0.2-0.3-0.4-0.3-0.7v-0.3c-1.2-8.1-1.8-16.3-1.9-24.5c0-2.6,0.1-5.6,0.2-8.5
			c0-2.7-1.3-4.5-4-4.5c-3.1,0-10.6,0-22.4,0c-4.4,0-9.1,2.3-12.3-2.3c12.4-0.8,24.3-1.2,36.9-0.4
			C486.7,747.9,480.9,781.8,479.6,788.4z"/>
		<path class="st14" d="M542.3,788.7c-0.4-12.2-0.8-24.4-1.2-36.4c-0.1-1.9-1-2.8-2.9-2.9c-9.5-0.1-18.9-0.6-28.4,0.5
			c-2.6,0.3-4.5-0.2-5.8-2.4c11.6-0.6,24.6-1.1,36.7-0.3c9.1,0.6,5.2,33.2,4.4,38.8C544.9,787.9,544,788.4,542.3,788.7z"/>
		<path class="st14" d="M609.8,784c-1.2,0-2.2-0.4-2.7-1.1l-0.1-0.4c1.3-8.8,1.6-18,1.1-27.7c-0.2-4.2-2.7-5.7-6.5-5.5
			c-6.2,0.4-13,0.4-20.3,0c-4.7-0.2-8.6-0.6-11.8-1.2c11.8-1.4,23.5-1.7,35.2-0.9C615,747.9,610.8,777.7,609.8,784z"/>
		<path class="st14" d="M414,788.4l-0.2-0.1l-0.1-0.2c-1-10-1-19.9-0.1-29.9c0.2-1.9,0.1-3.3-0.2-4.3c-0.6-2-2.4-4.8-5-4.6
			c-11,0.9-22.2,0.6-33.4-0.9l-0.2-0.1V748c9.8-0.9,21.1-1.1,33.8-0.8c5.8,0.1,8,3,8.7,8.4C418.7,766.7,417.7,777.6,414,788.4z"/>
		<path class="st14" d="M736.6,788.1h-0.2l-0.2-0.2c0.1-17.7,0.1-28.9-0.1-33.5c-0.1-2.6-1.2-4.3-3.2-5.1c-0.9-0.3-2.6-0.4-5.3-0.2
			c-10.1,0.7-20.2,0.3-30.3-1.3c11-1,22.4-1.3,34.1-0.8c4.6,0.2,7.3,2.5,7.9,6.9C741.2,765.7,740.3,777.1,736.6,788.1z"/>
		<path class="st14" d="M286.9,780.5c-1.3,0-3,0.5-2.9-1.5c0.2-4.5,0.5-12.3,0.7-23.6c0.1-5.3-5.2-5.9-9.1-5.6
			c-16.2,0.9-32.3,0.4-48.5-1.5c17-1.5,37.4-1.3,51.2-1.1c4.1,0.1,8,2.2,8.4,6.6C287.5,761.5,287.6,770.4,286.9,780.5z"/>
		<path class="st14" d="M343.1,789.1c0.8-1.4,1.8-2.5,3.1-3.3c0.4-0.3,0.6-0.7,0.7-1.3c1.1-10.1,1.9-19.9,1.1-29.7
			c-0.4-5.2-3.4-5.8-8.2-5.4c-9.8,0.9-19.7,0.3-29.4-1.8c10.3-0.3,20.5-0.4,30.6-0.5c7.6-0.1,9.9,1.5,10.1,9.1
			c0.2,4.2,1.6,31.1-3.3,32C346.3,788.6,344.7,788.8,343.1,789.1z"/>
		<path class="st14" d="M672.4,788.5c0.1-15.3,0.1-26.3,0.1-33.2c-0.1-5.5-5.5-6.7-9.8-6.3c-9.9,1.1-18.9,0.9-29.4-1.2
			c10.4-0.9,21-0.8,32.6-0.7c5.1,0.1,8.1,0.7,9,6.4C676.6,765.3,675.8,776.9,672.4,788.5z"/>
		<path class="st15" d="M766,747.9c0,0.2,0,0.4,0.2,0.4c9.8,1.5,19.7,1.6,29.5,0.4c2.1-0.3,4.6,3,5.2,4.7c0.3,0.9,0.4,2.5,0.3,4.7
			c-0.3,10.8-0.4,19.8-0.3,27c0,0.9,0.3,2.1,1,3.7c-11.7,0.5-23.4,0.8-35.1,0.7c-2.9,0-10.6-0.4-10.8-3.9c-0.5-9-1-18.4-0.3-27.4
			c0.2-2.7,0.6-5.1,1.3-7.2c1-3.1,4.5-4.9,7.5-3h0.4C765.3,747.9,765.6,747.8,766,747.9z"/>
		<path class="st15" d="M310.4,747.7c9.8,2.1,19.6,2.7,29.4,1.8c4.8-0.5,7.7,0.1,8.2,5.4c0.8,9.8,0,19.6-1.1,29.7
			c-0.1,0.6-0.3,1-0.7,1.3c-1.3,0.8-2.3,1.9-3.1,3.3c-12-0.2-23.9-0.3-35.9-0.5c-2.3,0-3.4-1-3.7-3.3
			C302.8,780.2,298.8,744.6,310.4,747.7z"/>
		<path class="st15" d="M504,747.5c1.3,2.2,3.2,2.7,5.8,2.4c9.5-1,18.9-0.5,28.4-0.5c1.9,0,2.8,1,2.9,2.9c0.4,12,0.8,24.2,1.2,36.4
			c-14.4,1-28.1,1-41.2-0.1c-1.9-0.2-2.7-1.6-2.9-3.4c-0.8-9.7-0.9-19.3-0.2-29C498.3,752.2,500,748.7,504,747.5z"/>
		<path class="st15" d="M438.8,747.6c3.2,4.6,7.9,2.3,12.3,2.3c11.8,0,19.3,0,22.4,0c2.8,0,4.1,1.8,4,4.5c0,2.8-0.2,5.9-0.2,8.5
			c0.1,8.2,0.7,16.4,1.9,24.5v0.3c-0.1,0.3,0,0.5,0.3,0.7v0.2l-0.3,0.2c-14-0.1-28-0.2-42-0.4c-1.8,0-3.4-0.8-3.6-2.6
			c-1.2-10.4-1.2-21.3,0.1-32.7C434.2,750.2,436,748.5,438.8,747.6z"/>
		<path class="st15" d="M374.7,747.9v0.3l0.2,0.1c11.3,1.5,22.4,1.8,33.4,0.9c2.5-0.2,4.4,2.6,5,4.6c0.3,0.9,0.4,2.4,0.2,4.3
			c-0.9,10-0.9,19.9,0.1,29.9l0.1,0.2l0.2,0.1c0,0.4-0.1,0.7-0.4,0.7c-14.1-0.2-28.2-0.4-42.2-0.5c-2.1,0-2.8-0.5-2.9-2.7
			c-0.5-11.6-0.6-21.9-0.1-30.9C368.6,750.5,369.7,747.6,374.7,747.9z"/>
		<path class="st15" d="M633.2,747.9c10.5,2,19.5,2.3,29.4,1.2c4.4-0.5,9.8,0.8,9.8,6.3c0.1,6.8,0.1,17.9-0.1,33.2
			c0.1,0.2,0.1,0.4-0.2,0.6c-0.1,0.1-0.2,0.2-0.4,0.1c-13.5-0.2-27-0.5-40.6-0.8c-2.2,0-3.6-1-3.8-3.2c-1.2-10.4-1.2-20.9-0.1-31.3
			c0.1-1.1,0.4-2,0.9-2.7C629.4,749.2,631.1,748.1,633.2,747.9z"/>
		<path class="st15" d="M697.3,747.9c10.1,1.6,20.2,2,30.3,1.3c2.6-0.2,4.4-0.1,5.3,0.2c2,0.7,3.1,2.4,3.2,5.1
			c0.2,4.6,0.2,15.8,0.1,33.5l0.2,0.2h0.2l-0.4,0.9c-0.1,0.2-0.2,0.2-0.4,0.2c-13.6-0.2-27.2-0.4-40.8-0.5c-2.4,0-3.7-0.9-3.7-3.4
			c0.1-10.3,0.2-20.5,0.2-30.8c0-1.1,0.2-2,0.6-2.7C693,750.3,695.4,747.6,697.3,747.9z"/>
		<path class="st15" d="M227.1,748.2c16.2,2,32.3,2.5,48.5,1.5c3.9-0.2,9.2,0.4,9.1,5.6c-0.2,11.2-0.5,19.1-0.7,23.6
			c-0.1,2,1.6,1.5,2.9,1.5c0.2,2.8-0.3,5.3-1.5,7.6c-0.2,0.4-0.6,0.6-1,0.6c-20,0-40,0-60.1-0.1c-2.4,0-3.4-0.9-3.5-3.2
			c-0.1-8.2,0.1-18.2,0.5-30.2c0.1-2.3,0.7-7.5,4.1-7.1C226,748.2,226.6,748.2,227.1,748.2z"/>
		<path class="st15" d="M569.3,748.2c3.2,0.5,7.2,0.9,11.8,1.2c7.3,0.4,14.1,0.4,20.3,0c3.9-0.2,6.3,1.3,6.5,5.5
			c0.5,9.7,0.2,18.9-1.1,27.7l0.1,0.4c0.6,0.8,1.5,1.2,2.7,1.1c0.2,1.4-0.2,5.1-2.3,5.1c-8.8,0-22.2,0-40.2-0.1
			c-3.5,0-4.4-2-4.7-5.2c-0.6-7-0.9-14.1-0.7-21.1c0.1-3.7,0.3-14.5,5.6-14.6C568.1,748.1,568.7,748.1,569.3,748.2z"/>
		<path class="st15" d="M470,804.4c2.3,1,4.2,1.9,5.5,2.7c3.9,2.3,3.5,5.4,3.2,10c-0.6,10.9-0.4,21.9,0.4,32.8
			c0,0.1,0.1,0.2,0.4,0.2l-0.1,0.2l-0.3,0.2c-13,0.1-26,0.3-39,0.5c-4.2,0.1-6.6-0.9-6.8-5.4c-0.3-10.9-0.1-21.7,0.7-32.6
			c0.2-2.4,0.3-3.6,0.3-3.8C436.4,800.7,463.6,803.5,470,804.4z M472.9,817.7c0-0.7-0.6-1.3-1.3-1.3l-25.7,0.2
			c-0.7,0-1.3,0.6-1.3,1.3v2.6c0,0.7,0.6,1.3,1.3,1.3l0,0l25.7-0.2c0.7,0,1.3-0.6,1.3-1.3l0,0V817.7z"/>
		<path class="st14" d="M414.4,850.9c-0.4-0.2-0.5-0.3-0.3-0.5c0.3-12.3,0.5-24.6,0.8-36.9c0.1-2.8-0.9-4.8-3-6
			c-1.1-0.6-3-1-5.7-1.1c-8.6-0.4-17.2-0.3-25.8,0.3c-1.9,0.2-2.8-0.4-2.7-2.4c10.2-0.9,20.3-0.8,30.5,0.5c4.8,0.6,8,2,8.4,7.2
			c0.8,11.8,1.8,23.7-0.4,35.1C415.9,848.1,415.4,849.3,414.4,850.9z"/>
		<path class="st14" d="M801.1,851.2c-0.2-0.2-0.3-0.4-0.3-0.7c0.5-12.8,1-25.7,1.6-38.5c0.1-3-0.9-4.3-3.9-4.8
			c-5.9-1-11.8-1.2-17.7-0.7c-3.9,0.3-6.4,0.5-7.4,0.4c-3.8-0.1-7.6-0.7-11.4-1.8c13.4-1.9,25.9-1.8,37.7,0.4c3,0.5,3.9,3.1,4.2,6.1
			c0.8,9.1,1,18.3,0.5,27.4C804.2,842.8,803.5,848.1,801.1,851.2z"/>
		<path class="st14" d="M543.2,850.5c-2.1-0.8-4-1.4-3.4-4.2c2-8.8,3.2-18,3.8-27.5c0.1-2-0.1-11.3-2.8-11.7
			c-6.3-0.9-12.5,0.6-18.9,0.4c-6-0.2-12.1-0.8-18.2-1.8c13.5-2.2,26.2-2.3,38.3-0.2c7.6,1.3,3.9,36,3.2,41.8
			C545,848.6,544.3,849.7,543.2,850.5z"/>
		<path class="st14" d="M736.1,850.9c0.7-10.5,0.9-20.9,0.6-31.3c0-0.6,0-2,0.2-4c0.1-1.7,0-3.6-0.3-5.6c-0.2-1.7-0.7-2.4-2.5-2.5
			c-9.9-0.7-19.8-1.5-29.8-2.3c6.4-1,12.7-1.4,18.9-1.2c5.5,0.2,10.2,0.6,14.5,3c0.9,0.5,1.3,1.6,1.4,2.6c1.4,13.1,1.1,26-0.7,38.6
			C738.2,849.7,737.5,850.6,736.1,850.9z"/>
		<path class="st14" d="M283.2,806l-0.2,0.2l-0.4,0.1c-12.5,0.5-23.9,0.3-35.4,0.1c-7.4-0.1-14.4,0.6-21.9-0.3
			c1.9-0.4,4.3-0.7,7.1-0.9C249.6,803.8,266.6,804,283.2,806z"/>
		<path class="st14" d="M609.5,843.5c-0.3-10.4-0.4-20.7-0.5-31c0-4.7-2-5.8-6.6-5.8c-9.8-0.2-19.5-0.3-29.3-0.5
			c-2.5,0-4.4-0.1-5.7-0.3c11.2-2,22.4-2.4,33.6-1.1c4.7,0.5,8.4,0.8,9.2,5.8C611.9,821.2,611.6,832.1,609.5,843.5z"/>
		<path class="st15" d="M343.7,805c0,0.5-0.2,0.8-0.6,1c-0.3,0.1-0.5,0.5-0.3,0.8c0.1,0.2,0.3,0.3,0.5,0.4c3,0.3,5.7,1.2,5.7,4.7
			c0.1,8,0.2,20.8,0.3,38.2c0.2,0.4,0.2,0.7,0,0.9c-0.1,0.1-0.4,0.2-0.7,0.2c-12.4,0.6-24.4,0.9-35.9,0.8
			c-5.7-0.1-10.4-0.1-10.1-7.3c0.5-10,0.5-20,0.9-30c0.1-1.7,0.2-3.4,0.4-5.1c0.5-4.6,3.4-4.6,7.5-4.8
			C323,804.2,333.1,803.9,343.7,805z M342.3,819c0-1.2-0.9-2.1-2.1-2.1l-21.7-0.3c-1.2,0-2.1,0.9-2.1,2.1v1c0,1.2,0.9,2.1,2.1,2.1
			l21.7,0.3c1.2,0,2.1-0.9,2.1-2.1V819z"/>
		<path class="st14" d="M479.5,850.2c-0.2-0.1-0.3-0.1-0.4-0.2c-0.8-10.9-1-21.9-0.4-32.8c0.2-4.7,0.7-7.7-3.2-10
			c-1.4-0.8-3.2-1.7-5.5-2.7c4-0.4,8.8,0.5,10.8,4.3c0.6,1.1,0.9,2.9,1.1,5.5c0.6,8.2,0.6,16,0.2,23.6
			C481.8,842,481,846.1,479.5,850.2z"/>
		<path class="st14" d="M673.7,846.8c-0.2-11.5-0.4-23-0.5-34.4c0-3.9-1.8-5.1-5.5-5.1c-11.2-0.2-22.4-0.4-33.6-0.7
			c-1,0-1.4-0.5-1.5-1.5c11.6-1.3,23.4-0.9,35,0.2c5.9,0.6,7.2,4.2,7.6,9.6C675.8,825.5,675.3,836.2,673.7,846.8z"/>
		<path class="st15" d="M377.7,804.4c-0.1,2,0.8,2.5,2.7,2.4c8.6-0.7,17.2-0.8,25.8-0.3c2.7,0.1,4.6,0.5,5.7,1.1
			c2.1,1.2,3.1,3.2,3,6c-0.3,12.3-0.6,24.6-0.8,36.9c-0.2,0.1-0.1,0.3,0.3,0.5c-0.2,0.3-0.5,0.4-1.1,0.4c-17.2,0-30.5,0.1-40,0.1
			c-2.7,0-4.8-0.3-4.8-3.5c-0.2-13.3-2-27.1,1.3-40.2c0.2-0.7,0.5-1.3,0.9-1.8l0.4-0.2L377.7,804.4z M408.1,818.4
			c0-1-0.8-1.9-1.9-1.9l-23.8-0.2c-1,0-1.9,0.8-1.9,1.9v1.6c0,1,0.8,1.9,1.9,1.9l0,0l23.8,0.2c1,0,1.9-0.8,1.9-1.9V818.4z"/>
		<path class="st15" d="M704.3,805.2c10,0.9,20,1.6,29.8,2.3c1.8,0.1,2.2,0.8,2.5,2.5c0.3,2,0.4,3.9,0.3,5.6c-0.1,2-0.2,3.4-0.2,4
			c0.3,10.4,0.1,20.8-0.6,31.3c-13.4,0.2-26.7,0.4-40.1,0.5c-2.6,0-4-1.3-4.1-4c-0.4-11.6-0.1-23.6,0.8-36c0.4-5.9,4-7.7,9.4-6.4
			c0.3,0.1,0.7,0.1,1.1,0.1C703.6,805.1,704,805.1,704.3,805.2z M732.6,818.5c0-1-0.8-1.8-1.8-1.8l0,0h-24.1c-1,0-1.8,0.8-1.8,1.8
			v1.4c0,1,0.8,1.8,1.8,1.8h24.1c1,0,1.8-0.8,1.8-1.8V818.5z"/>
		<path class="st14" d="M343.7,805c7,0.4,6.9,4.6,7.4,9.9c1.2,11.7,0.6,23.5-1.8,35.2c-0.1-17.4-0.2-30.2-0.3-38.2
			c-0.1-3.5-2.7-4.4-5.7-4.7c-0.3,0-0.6-0.3-0.6-0.7c0-0.2,0.2-0.4,0.4-0.5C343.5,805.8,343.7,805.4,343.7,805z"/>
		<path class="st15" d="M762,805.2c3.8,1.1,7.6,1.6,11.4,1.8c1,0,3.5-0.1,7.4-0.4c5.9-0.5,11.8-0.2,17.7,0.7c3,0.5,4.1,1.8,3.9,4.8
			c-0.5,12.8-1.1,25.7-1.6,38.5c0,0.3,0.1,0.5,0.3,0.7c-0.2,0.2-0.6,0.3-1.2,0.3c-15.6,0.5-28.7,0.6-39.3,0.3
			c-3.3-0.1-3.9-2.7-4.1-5.7c-0.7-11.3-0.5-22.7,0.5-34c0.2-2,0.5-3.4,1-4.3C758.9,806.2,760.3,805.3,762,805.2z M797.5,818
			c0-0.7-0.6-1.3-1.3-1.3h-26c-0.7,0-1.3,0.6-1.3,1.3v2.4c0,0.7,0.6,1.3,1.3,1.3h26c0.7,0,1.3-0.6,1.3-1.3V818z"/>
		<path class="st15" d="M632.6,805.1c0,1,0.5,1.4,1.5,1.5c11.2,0.3,22.4,0.5,33.6,0.7c3.8,0.1,5.5,1.2,5.5,5.1
			c0.1,11.4,0.3,22.9,0.5,34.4c0.4,1.8,0.3,4-2.2,4.2c-13.4,1.1-26.6,1.2-39.7,0.3c-3-0.2-4.5-1.8-4.7-4.8
			c-0.6-12.3-0.6-25.2,1.3-37.3C628.7,806.8,630.1,805.5,632.6,805.1z M669.2,819c0-1.1-0.8-2-1.9-2l-25.1-0.5c-1.1,0-2,0.8-2,1.9
			v1.3c0,1.1,0.8,2,1.9,2l25.1,0.5c1.1,0,2-0.8,2-1.9V819z"/>
		<path class="st15" d="M503.7,805.6c6.1,0.9,12.2,1.5,18.2,1.8c6.4,0.2,12.6-1.3,18.9-0.4c2.7,0.4,2.9,9.8,2.8,11.7
			c-0.6,9.5-1.8,18.7-3.8,27.5c-0.6,2.8,1.3,3.4,3.4,4.2c-1.5,0.5-2.4,0.7-2.8,0.7c-19.4,0.1-31.8,0.1-37.1-0.1
			c-3.2-0.1-4.8-1.8-5-5c-0.5-10.4-0.3-22.3,0.7-35.5c0.2-2,0.8-4.6,3-4.9C502.7,805.6,503.2,805.6,503.7,805.6z M539.4,817.5
			c0-0.6-0.5-1.1-1.1-1.1l-27.3-0.3c-0.6,0-1.1,0.5-1.1,1.1v2.7c0,0.6,0.5,1.1,1.1,1.1l27.3,0.3c0.6,0,1.1-0.5,1.1-1.1l0,0V817.5z"
			/>
		<path class="st15" d="M225.3,806.1c7.5,1,14.6,0.2,21.9,0.3c11.5,0.2,22.9,0.3,35.4-0.1l0.4-0.1l0.2-0.2c0.6-0.1,1.2,0,1.9,0.3
			c0.1,0.1,0.2,0.2,0.3,0.3c2.5,13,2.8,27,1.3,39.8c-0.4,3.3-2.3,5-5.8,5.3c-4.1,0.3-11.8,0.4-23.2,0.2c-10.4-0.1-22-0.4-34.7-0.9
			c-1.1,0-1.8-0.6-1.8-1.7c-1-13-1-25.9,0-38.9C221.4,808.6,223.1,805,225.3,806.1z M277.1,817.8c0-0.8-0.6-1.4-1.4-1.4l-24-0.2
			c-0.8,0-1.4,0.6-1.4,1.4l0,0v2.8c0,0.8,0.6,1.4,1.4,1.4l24,0.2c0.8,0,1.4-0.6,1.4-1.4V817.8z M235.8,823.3
			c0.7,0.6,1.3,0.8,1.9,0.5c0.2-0.1,0.3-0.2,0.4-0.4l1.6-4.4c0.2-0.4,0-0.9-0.4-1.2c-1.1-0.7-4.1-1.6-4.8,0
			C233.7,819.8,234.1,821.7,235.8,823.3z"/>
		<path class="st15" d="M567.4,806c1.3,0.1,3.2,0.2,5.7,0.3c9.8,0.1,19.5,0.3,29.3,0.5c4.6,0.1,6.6,1.1,6.6,5.8
			c0.1,10.3,0.3,20.6,0.5,31c0.3,0.2,0.3,0.6-0.1,1.1v0.4c1.9,2.7-0.8,6-3.7,6.2c-13.6,0.9-26.7,0.8-39.2-0.3
			c-2.9-0.3-3.5-2.4-3.7-5.2c-0.5-8.5-0.6-17.1-0.4-25.6C562.6,816.2,562,806.5,567.4,806z M574.3,817.5c0,2.4,2.2,4.2,4.4,4.2
			c4.3,0.1,11.4,0.1,21.2,0.2c2.6,0,4.5-0.5,5.4-3c0.6-1.7-0.3-2-1.8-2c-9.5,0-18.9-0.1-28.3-0.3C574.7,816.6,574.3,817,574.3,817.5
			L574.3,817.5z"/>
		<path class="st16" d="M511.1,816l27.3,0.3c0.6,0,1.1,0.5,1.1,1.1v2.7c0,0.6-0.5,1.1-1.1,1.1L511,821c-0.6,0-1.1-0.5-1.1-1.1v-2.7
			C509.9,816.5,510.4,816,511.1,816z"/>
		<path class="st16" d="M251.7,816.2l24,0.2c0.8,0,1.4,0.7,1.4,1.4v2.8c0,0.8-0.7,1.4-1.4,1.4l-24-0.2c-0.8,0-1.4-0.7-1.4-1.4v-2.8
			C250.3,816.8,250.9,816.2,251.7,816.2z"/>
		<path class="st16" d="M382.5,816.3l23.8,0.2c1,0,1.9,0.9,1.9,1.9v1.6c0,1-0.9,1.9-1.9,1.9l-23.8-0.2c-1,0-1.9-0.9-1.9-1.9v-1.6
			C380.6,817.1,381.5,816.2,382.5,816.3z"/>
		<path class="st16" d="M445.9,816.6l25.7-0.2c0.7,0,1.3,0.6,1.3,1.3v2.6c0,0.7-0.6,1.3-1.3,1.3l-25.7,0.2c-0.7,0-1.3-0.6-1.3-1.3
			v-2.6C444.6,817.2,445.2,816.7,445.9,816.6z"/>
		<path class="st16" d="M642.2,816.5l25.1,0.5c1.1,0,1.9,0.9,1.9,2v1.3c0,1.1-0.9,1.9-2,1.9l-25.1-0.5c-1.1,0-1.9-0.9-1.9-2v-1.3
			C640.2,817.3,641.1,816.5,642.2,816.5z"/>
		<path class="st16" d="M318.6,816.6l21.7,0.3c1.2,0,2.1,1,2.1,2.1v1c0,1.2-1,2.1-2.1,2.1l-21.7-0.3c-1.2,0-2.1-1-2.1-2.1v-1
			C316.5,817.5,317.4,816.5,318.6,816.6z"/>
		<path class="st16" d="M578.7,821.7c-2.2-0.1-4.4-1.8-4.4-4.2c0-0.5,0.4-0.9,0.9-0.9l0,0c9.4,0.1,18.9,0.2,28.3,0.3
			c1.5,0,2.4,0.3,1.8,2c-0.9,2.5-2.8,3-5.4,3C590,821.8,583,821.8,578.7,821.7z"/>
		<path class="st16" d="M706.8,816.7h24.1c1,0,1.8,0.8,1.8,1.8v1.4c0,1-0.8,1.8-1.8,1.8h-24.1c-1,0-1.8-0.8-1.8-1.8v-1.4
			C705,817.5,705.8,816.7,706.8,816.7z"/>
		<path class="st16" d="M770.2,816.7h26c0.7,0,1.3,0.6,1.3,1.3v2.4c0,0.7-0.6,1.3-1.3,1.3h-26c-0.7,0-1.3-0.6-1.3-1.3V818
			C768.9,817.3,769.5,816.7,770.2,816.7z"/>
		<path class="st16" d="M235.8,823.3c-1.7-1.6-2.1-3.4-1.2-5.5c0.7-1.6,3.7-0.7,4.8,0c0.4,0.3,0.5,0.8,0.4,1.2l-1.6,4.4
			c-0.1,0.2-0.2,0.3-0.4,0.4C237.1,824,236.5,823.9,235.8,823.3z"/>
		<path class="st10" d="M633.1,911.1c-0.2,3.8-0.4,7.7-0.6,11.5c-0.5,10.1-6.7,12.3-15.6,12.3c-71.1,0-142.2,0-213.3-0.1
			c-15.5,0-13.3-13.7-13.2-24.3c-0.2-1.4-0.1-2.9-0.2-4.2c-0.8-9.9-1.9-27.9,12.8-28c68.7-0.2,137.5-0.5,206.2,0
			c4.2,0,8.3,0.1,12.5,0.3c10.1,0.4,11.6,11,11.8,18.9C633.5,900.8,633.4,905.3,633.1,911.1z M406.9,913.6c-0.3,1.1-0.8,5.7,1.1,5.7
			c68.3,0,133.7,0,206.2-0.2c0.8,0.1,1.5,0,2-0.3l0.2-0.4c0-7.1,0-14.3,0-21.4c0-2.2-1.2-3.2-3.4-3.2c-67.5,0-135,0-202.4,0
			c-1.7,0-3.4,0.5-3.5,2.4C407,902,406.9,907.8,406.9,913.6z"/>
		<path class="st16" d="M614.2,919.1c-0.2-5-0.3-10-0.4-15c0-2.4-0.7-3.9-3.3-3.9c-66.9-0.1-133.8-0.2-200.6-0.3
			c-0.6,0-1.1,0.5-1.1,1.1c-0.2,3.7-0.2,7.5,0.1,11.4c0.1,1.1-0.6,1.5-1.9,1.2c0.1-5.8,0.1-11.6,0.2-17.4c0-1.9,1.7-2.4,3.5-2.4
			c67.5,0,135,0,202.4,0c2.3,0,3.4,1,3.4,3.2c0,7.1,0,14.2,0,21.4l-0.2,0.4C615.7,919.1,615,919.2,614.2,919.1z"/>
		<path class="st15" d="M883.7,897.7c0.9,18.7-3.3,39.8-22.1,48.4c-6.2,2.8-13.6,3.5-20.7,3.5c-19.9,0.2-34.7,0.2-44.4,0.2
			c-204.2-0.8-408.4-0.8-612.5,0c-21.7,0.1-38.7-14.6-40.4-36.4c-0.3-4.4-0.4-9.2-0.1-14.5h0.2l0.2,0.1c7.9,5.4,16.3,10.6,25.6,12
			c2,0.3,5.1,0.4,9.3,0.4c70.6-0.9,141.1,0.1,211.7-0.8c-0.1,10.6-2.4,24.3,13.2,24.3C474.8,935,545.9,935,617,935
			c8.9,0,15.2-2.2,15.6-12.3c0.2-3.8,0.4-7.7,0.6-11.5c3,1.3,7.1,0.1,10.3,0.1c44.5-0.1,89-0.1,133.5,0c2.9,0,6,0,9.3-0.1
			c19.5-0.4,39-0.4,58.4,0c4,0.1,7.1,0,9.3-0.3c9.2-1.1,18.1-5,25.6-10.3C880.9,899.6,882.3,898.6,883.7,897.7z"/>
		<path class="st14" d="M614.2,919.1c-72.5,0.2-137.9,0.3-206.2,0.2c-2,0-1.4-4.6-1.1-5.7c1.3,0.2,2-0.2,1.9-1.2
			c-0.2-3.9-0.3-7.7-0.1-11.4c0-0.6,0.5-1.1,1.1-1.1c66.8,0.1,133.7,0.2,200.6,0.3c2.6,0,3.3,1.5,3.3,3.9
			C613.9,909.1,614,914.1,614.2,919.1z"/>
	</g>
</g>
</svg>
